<?xml version="1.0" ?>
<!DOCTYPE svg  PUBLIC '-//W3C//DTD SVG 1.1//EN'  'http://www.w3.org/Graphics/SVG/1.1/DTD/svg11.dtd'>
<!-- Uploaded to: SVG Repo, www.svgrepo.com, Generator: SVG Repo Mixer Tools -->
<svg fill="#000000" width="800px" height="800px" viewBox="0 0 512 512" enable-background="new 0 0 512 512" id="Good_x5F_atmosphere" version="1.1" xml:space="preserve" xmlns="http://www.w3.org/2000/svg" xmlns:xlink="http://www.w3.org/1999/xlink">
<g>
<rect height="10.168" width="10.168" x="74.543" y="348.782"/>
<rect height="10.169" width="10.168" x="371.439" y="322.795"/>
<rect height="10.168" width="10.168" x="430.74" y="347.442"/>
<path d="M234.609,266.617h-10c0,1.677-1.364,3.04-3.04,3.04c-1.677,0-3.041-1.363-3.041-3.04h-10c0,7.19,5.85,13.04,13.041,13.04   C228.759,279.657,234.609,273.808,234.609,266.617z"/>
<path d="M248.937,316.81c-8.604,0-16.556-5.016-20.26-12.777l-9.025,4.307c5.354,11.221,16.849,18.471,29.285,18.471   c12.424,0,23.918-7.249,29.284-18.468l-9.021-4.313C265.486,311.792,257.533,316.81,248.937,316.81z"/>
<path d="M276.303,279.657c7.191,0,13.041-5.85,13.041-13.04h-10c0,1.677-1.363,3.04-3.041,3.04c-1.676,0-3.039-1.363-3.039-3.04   h-10C263.264,273.808,269.113,279.657,276.303,279.657z"/>
<path d="M268.709,461.698h69.18v-29.852h-69.18V461.698z M278.709,441.847h49.18v9.852h-49.18V441.847z"/>
<rect height="10" width="21.334" x="50.136" y="409.554"/>
<rect height="10" width="21.334" x="426.717" y="409.554"/>
<path d="M453.609,374.901h-44.672v14.177h-36.908v10h88.93v30.96H359.1v10h49.838v12.24h-48.959v10h48.959v0.003h44.672v-0.003   h7.35v14.55H353.256v-52.478c0-6.602-1.053-12.973-2.996-18.953c9.51-10.152,14.914-23.69,14.914-37.661   c0-16.866-7.576-32.577-20.789-43.104c-4.121-3.279-6.484-8.145-6.484-13.35v-8.803c43.291,4.197,86.605,11.466,128.836,21.64   l2.342-9.722c-42.994-10.358-87.104-17.736-131.178-21.963v-72.229c0-24.175-9.527-46.941-26.828-64.105   c-16.816-16.684-38.859-25.846-62.141-25.846c-0.234,0-0.47,0.001-0.703,0.003c-23.497,0.186-45.587,9.438-62.201,26.051   c-16.805,16.797-26.06,39.137-26.06,62.904v75.482c-42.844,4.278-85.711,11.525-127.556,21.569l2.334,9.724   c41.082-9.861,83.159-16.993,125.222-21.239v6.112c0,5.273-2.411,10.181-6.612,13.463c-13.476,10.511-21.204,26.334-21.204,43.413   c0,14.196,5.552,27.888,15.323,38.083c-1.857,5.857-2.858,12.086-2.858,18.531v52.478H36.939v-14.55h6.44v0.003h44.669v-0.003   h49.88v-10h-49.88v-12.24h50.76v-10H36.939v-30.96h88.32v-10h-37.21v-14.177H43.379v14.177h-16.44v50.96h16.44v12.24h-16.44v34.55   h117.676h208.641h117.703v-34.55h-17.35v-12.24h17.35v-50.96h-17.35V374.901z M443.609,452.278h-24.672v-12.24h24.672V452.278z    M53.379,384.901h24.669v4.177H53.379V384.901z M53.379,440.038h24.669v12.24H53.379V440.038z M343.256,476.828H154.615v-52.478   c0-23.819,16.225-44.133,39.456-49.397l13.589-3.08c10.412,11.979,25.279,18.787,41.277,18.787   c15.997,0,30.866-6.808,41.282-18.786l13.584,3.079c23.23,5.265,39.453,25.577,39.453,49.397V476.828z M203.07,362.659   l-9.982,2.263c-2.441-8.067-3.69-16.405-3.69-24.853v-22.485c3.045,5.021,6.717,9.614,10.894,13.696v8.545   C200.292,347.542,201.235,355.197,203.07,362.659z M271.203,367.564l7.555,1.712c-8.137,7.305-18.639,11.384-29.821,11.384   s-21.684-4.079-29.817-11.385l7.545-1.71C239.888,377.439,257.945,377.46,271.203,367.564z M232.906,359.729v-10.523   c5.066,1.184,10.336,1.83,15.757,1.83c5.616,0,11.072-0.689,16.304-1.957v10.633C255.377,366.698,242.474,366.696,232.906,359.729z    M274.967,358.163v-12.33c4.412-1.818,8.604-4.072,12.504-6.721v0.713c0,6.963-0.857,13.871-2.525,20.6L274.967,358.163z    M222.906,358.163l-10.083,2.286c-1.671-6.737-2.531-13.652-2.531-20.624V339.4c3.939,2.632,8.165,4.859,12.614,6.648V358.163z    M294.699,362.636c1.83-7.455,2.771-15.103,2.771-22.811v-8.962c3.996-3.972,7.512-8.425,10.449-13.267v25.297   c0,6.079-0.506,12.195-1.506,18.176c-0.225,1.35-0.484,2.701-0.762,4.049L294.699,362.636z M315.25,368.078   c0.381-1.782,0.729-3.571,1.027-5.36c1.09-6.525,1.643-13.195,1.643-19.824v-60.965c0-0.052,0.004-0.103,0.004-0.154h-0.004v-13.18   c0-27.646-17.701-51.798-44.045-60.102l-3.006,9.537c22.16,6.985,37.051,27.305,37.051,50.564v13.334   c-0.084,32.605-26.633,59.107-59.257,59.107c-32.677,0-59.261-26.585-59.261-59.262h-0.004v-11.416   c0-19.364,11.262-37.131,28.737-45.415l0.492-0.227c21.281-9.802,35.032-31.282,35.032-54.725v-7.656h-10v7.656   c0,19.361-11.247,37.118-28.699,45.399l-0.525,0.243c-21.284,9.811-35.037,31.291-35.037,54.724v69.711   c0,9.405,1.387,18.688,4.097,27.669c-13.829,5.271-24.948,15.244-31.696,27.84c-6.191-7.882-9.648-17.706-9.648-27.842   c0-13.976,6.325-26.925,17.357-35.53c6.647-5.193,10.459-12.973,10.459-21.346v-91.648c0-21.096,8.214-40.924,23.131-55.832   c14.746-14.747,34.354-22.959,55.209-23.123c0.207-0.002,0.414-0.003,0.621-0.003c20.626,0,40.171,8.134,55.101,22.944   c15.393,15.272,23.871,35.518,23.871,57.007v91.077c0,8.27,3.738,15.987,10.254,21.172c10.816,8.619,17.02,21.479,17.02,35.282   c0,10.104-3.268,19.624-9.311,27.443C339.24,383.036,328.531,373.374,315.25,368.078z M443.609,389.078h-24.672v-4.177h24.672   V389.078z"/>
<path d="M336.471,101.946c0,31.685,25.777,57.462,57.461,57.462c12.373,0,24.158-3.871,34.086-11.196l-5.938-8.047   c-8.195,6.047-17.928,9.243-28.148,9.243c-26.17,0-47.461-21.291-47.461-47.462c0-6.963,1.471-13.669,4.375-19.933l-9.072-4.205   C338.254,85.398,336.471,93.521,336.471,101.946z"/>
<path d="M436.977,140.015c9.297-10.506,14.418-24.025,14.418-38.068c0-31.685-25.777-57.462-57.463-57.462   c-16.656,0-32.477,7.22-43.406,19.809l7.551,6.556c9.029-10.4,22.098-16.364,35.855-16.364c26.172,0,47.463,21.291,47.463,47.462   c0,11.6-4.229,22.766-11.906,31.441L436.977,140.015z"/>
<path d="M460.707,101.946c0,36.819-29.955,66.774-66.775,66.774c-10.078,0-19.764-2.188-28.781-6.503l-4.316,9.021   c10.377,4.965,21.514,7.482,33.098,7.482c42.334,0,76.775-34.44,76.775-76.774c0-25.512-12.629-49.293-33.779-63.615l-5.607,8.28   C449.721,59.07,460.707,79.757,460.707,101.946z"/>
<path d="M424.156,31.352c-5.078-2.177-10.406-3.803-15.834-4.833l-1.863,9.825c4.715,0.895,9.344,2.308,13.758,4.199   L424.156,31.352z"/>
<path d="M346.057,161.968l6.24-7.813c-15.977-12.759-25.139-31.788-25.139-52.208c0-36.819,29.955-66.774,66.773-66.774v-10   c-42.334,0-76.773,34.441-76.773,76.774C317.158,125.424,327.691,147.301,346.057,161.968z"/>
<path d="M131.892,102.149c0-11.75-9.56-21.31-21.31-21.31s-21.309,9.56-21.309,21.31h10c0-6.236,5.074-11.31,11.309-11.31   c6.236,0,11.31,5.073,11.31,11.31c0,6.235-5.073,11.309-11.31,11.309h-80.16v10h80.16   C122.333,123.458,131.892,113.898,131.892,102.149z"/>
<path d="M155.493,117.431c6.235,0,11.309,5.073,11.309,11.31c0,6.235-5.073,11.309-11.309,11.309H75.332v10h80.161   c11.75,0,21.309-9.56,21.309-21.309c0-11.75-9.559-21.31-21.309-21.31s-21.31,9.56-21.31,21.31h10   C144.183,122.504,149.256,117.431,155.493,117.431z"/>
<rect height="10" width="12.458" x="51.049" y="140.049"/>
<path d="M463.752,225.222c-11.75,0-21.309,9.559-21.309,21.309h10c0-6.235,5.072-11.309,11.309-11.309s11.309,5.073,11.309,11.309   s-5.072,11.309-11.309,11.309h-72.369v10h72.369c11.75,0,21.309-9.559,21.309-21.309S475.502,225.222,463.752,225.222z"/>
<path d="M432.564,222.808c0-11.749-9.559-21.309-21.309-21.309s-21.309,9.56-21.309,21.309h10c0-6.235,5.072-11.309,11.309-11.309   s11.309,5.073,11.309,11.309c0,6.236-5.072,11.31-11.309,11.31h-60.207v10h60.207C423.006,244.117,432.564,234.558,432.564,222.808   z"/>
<rect height="10" width="12.457" x="367.1" y="257.839"/>
</g>
</svg>