<?xml version="1.0" standalone="no"?>
<!DOCTYPE svg PUBLIC "-//W3C//DTD SVG 20010904//EN"
 "http://www.w3.org/TR/2001/REC-SVG-20010904/DTD/svg10.dtd">
<svg version="1.0" xmlns="http://www.w3.org/2000/svg"
 width="512.000000pt" height="512.000000pt" viewBox="0 0 512.000000 512.000000"
 preserveAspectRatio="xMidYMid meet">
<metadata>
Created by potrace 1.16, written by Peter Selinger 2001-2019
</metadata>
<g transform="translate(0.000000,512.000000) scale(0.100000,-0.100000)"
fill="#000000" stroke="none">
<path d="M0 4780 c0 -202 4 -340 9 -340 13 0 51 50 51 66 0 25 18 15 59 -33
56 -65 51 -80 -5 -18 -40 44 -44 46 -34 20 6 -16 28 -48 50 -70 21 -22 50 -64
64 -93 l27 -53 -38 16 c-73 31 -98 51 -120 95 -26 52 -30 39 -7 -19 16 -41 68
-82 144 -114 l35 -15 -38 -1 -38 -1 5 -47 c5 -38 4 -42 -3 -20 -13 38 -30 57
-52 57 -13 0 -19 9 -21 33 -2 25 -8 32 -25 32 -12 0 -25 4 -29 8 -4 4 -13 7
-20 7 -9 0 -12 -47 -13 -195 -1 -107 2 -195 7 -195 12 0 33 -50 26 -61 -4 -6
-11 -6 -20 2 -12 10 -14 0 -14 -59 l0 -71 53 -25 c61 -29 95 -63 171 -169 61
-87 63 -93 70 -261 l5 -119 -41 64 c-22 35 -54 79 -71 96 -27 29 -33 45 -48
145 -9 62 -17 100 -18 83 0 -16 5 -67 13 -112 l13 -81 -36 13 c-20 7 -54 23
-75 36 -27 16 -38 18 -34 8 4 -14 102 -69 123 -69 26 0 78 -62 124 -148 49
-89 51 -95 51 -172 0 -47 -4 -80 -10 -80 -5 0 -10 -11 -10 -24 0 -13 -6 -26
-12 -29 -10 -3 -10 -9 -1 -25 11 -18 10 -21 -10 -24 -21 -4 -21 -5 5 -18 27
-13 28 -15 28 -102 0 -68 -3 -88 -13 -84 -61 25 -89 29 -130 17 -73 -22 -87
-30 -99 -56 -6 -14 -19 -25 -30 -25 -14 0 -18 -8 -18 -41 l0 -40 150 7 c135 6
150 5 150 -10 0 -14 -18 -16 -150 -16 -129 0 -150 -2 -150 -16 0 -13 16 -14
130 -8 75 4 130 3 130 -2 0 -5 -7 -18 -15 -28 -8 -11 -15 -28 -15 -38 0 -11
-7 -18 -19 -18 -15 0 -21 -8 -23 -32 -2 -21 -8 -33 -18 -33 -10 0 -14 8 -11
25 11 63 7 75 -22 76 -27 1 -27 1 -1 -3 19 -3 24 -9 20 -21 -3 -9 -17 -55 -31
-102 -25 -86 -28 -72 -9 48 4 25 3 42 -3 42 -5 0 -16 -19 -23 -42 l-13 -43 -9
30 c-5 17 -6 44 -3 61 9 53 -7 46 -36 -17 -22 -46 -29 -76 -29 -120 0 -50 38
-395 55 -509 4 -23 3 -30 -3 -21 -13 19 -25 -3 -17 -32 7 -21 6 -21 -7 -3 -8
10 -15 39 -17 64 -1 26 -4 48 -7 51 -2 2 -4 -73 -4 -167 l0 -172 52 0 c29 0
114 5 190 12 76 6 140 9 143 6 3 -3 -10 -46 -30 -96 -19 -50 -35 -96 -35 -102
0 -5 22 -10 48 -10 45 0 50 3 73 38 24 36 26 37 102 43 103 9 110 19 14 19
l-77 0 12 25 c13 29 11 28 158 55 155 27 410 87 424 100 10 7 8 41 -5 147 -20
149 -22 179 -13 171 3 -3 13 -72 24 -153 10 -81 23 -152 29 -158 16 -16 14 32
-6 202 -16 134 -19 144 -41 152 -13 5 -126 9 -250 10 -417 0 -432 0 -432 -13
0 -7 31 -101 69 -208 58 -164 72 -195 88 -192 96 15 116 20 87 21 -54 2 -75
61 -22 61 13 0 117 18 232 40 115 21 213 37 218 34 11 -7 11 -104 0 -104 -5 0
-116 -22 -248 -49 -131 -27 -260 -52 -286 -56 -49 -6 -73 -29 -63 -57 8 -21
-52 -108 -75 -108 -11 0 -20 5 -20 10 0 25 64 176 80 191 17 14 16 20 -17 110
-99 272 -123 345 -118 357 4 11 19 12 65 7 34 -4 216 -8 405 -9 230 -1 348 -5
355 -12 6 -6 12 -42 14 -80 2 -38 11 -154 20 -259 9 -104 17 -237 18 -295 3
-89 1 -105 -13 -108 -13 -2 -19 15 -30 100 l-14 103 -133 3 c-131 3 -132 2
-120 -18 14 -22 32 -26 150 -35 87 -7 86 -6 92 -100 5 -65 14 -75 65 -67 l34
5 -6 97 -6 98 87 6 c48 3 150 7 227 8 l140 3 9 -42 c13 -58 32 -55 35 4 1 26
2 47 4 48 1 1 24 5 50 8 l48 7 -20 -26 c-41 -52 -20 -134 44 -174 19 -12 35
-24 35 -26 0 -3 -4 -3 -9 0 -13 8 -530 -24 -566 -35 -27 -8 -26 -8 10 -4 91
10 593 28 608 22 13 -5 17 -19 17 -57 l0 -50 -37 0 c-46 0 -373 -47 -381 -55
-3 -3 3 -5 12 -5 15 0 247 28 369 45 l37 5 0 -195 c0 -107 -4 -195 -9 -195 -5
0 -25 18 -45 40 -46 51 -47 81 -1 127 28 28 30 33 12 27 -26 -8 -55 -32 -69
-57 -25 -47 45 -137 142 -181 59 -27 216 -71 292 -82 43 -6 47 -8 42 -28 -5
-21 -1 -23 72 -34 l78 -11 41 30 42 30 174 4 c311 7 568 70 686 169 24 20 43
26 94 28 l64 3 3 157 c2 117 6 158 15 158 6 0 52 -11 102 -23 l90 -23 -40 -27
c-22 -15 -35 -27 -29 -27 6 0 28 11 48 25 21 14 41 23 44 21 26 -16 655 -134
1330 -249 12 -2 22 0 22 4 0 5 -1 9 -2 9 -6 0 -305 52 -658 115 -324 57 -638
120 -647 129 -5 5 189 47 315 68 l124 21 206 -31 c249 -37 319 -46 312 -39 -3
3 -97 19 -210 36 -195 30 -278 49 -223 50 64 2 313 57 413 91 180 61 311 117
337 143 46 46 4 78 -136 107 -85 17 -86 17 -89 49 -3 31 -2 33 25 27 30 -6
219 -36 228 -36 11 0 4 157 -9 195 -38 108 -58 185 -67 259 -27 218 -27 210
-13 191 14 -18 15 -26 34 -205 7 -57 18 -118 25 -135 12 -27 13 -22 8 55 -4
59 0 106 11 153 10 45 16 114 16 199 l0 131 -23 -21 c-37 -35 -41 -25 -8 20
32 44 40 77 19 80 -7 0 -17 2 -23 3 -5 2 -40 3 -77 4 -38 0 -68 5 -68 11 0 6
37 10 90 10 83 0 90 1 90 20 0 19 -7 20 -227 21 -126 1 -293 1 -373 0 -134 -2
-147 0 -175 20 -16 11 -21 17 -10 13 11 -5 192 -10 403 -12 l382 -2 0 165 c0
177 -3 186 -47 139 -17 -19 -23 -33 -19 -50 7 -27 -5 -32 -24 -9 -15 18 -47
20 -52 4 -3 -9 -10 -9 -27 0 -17 10 -26 10 -37 0 -12 -10 -14 -5 -14 26 0 23
14 64 40 113 41 80 91 197 143 342 l31 85 4 369 3 368 -65 -58 c-46 -40 -66
-65 -66 -81 0 -26 3 -28 30 -11 10 7 22 10 25 6 6 -6 -46 -98 -56 -98 -3 0
-14 10 -25 22 -10 12 -14 18 -7 15 8 -5 10 5 7 34 -5 51 27 116 64 132 18 8
26 18 24 30 -2 11 3 17 16 17 41 0 52 11 52 51 0 42 -19 60 -44 40 -20 -17
-26 -3 -19 47 6 44 6 45 -18 39 -18 -5 -30 -1 -42 13 -22 25 -43 25 -59 0 -7
-11 -19 -20 -26 -20 -11 0 -13 23 -10 109 3 106 4 111 33 142 49 52 106 89
137 89 30 0 39 25 17 47 -8 8 -5 13 10 18 19 6 21 14 21 81 0 41 -4 74 -10 74
-17 0 -85 -51 -97 -73 -17 -31 -16 -86 2 -93 24 -10 18 -18 -45 -68 -33 -26
-60 -45 -60 -43 0 2 15 45 34 96 19 50 32 99 29 109 -2 10 5 45 16 78 23 68
28 42 6 -31 -8 -27 -13 -50 -12 -52 9 -8 32 36 33 62 3 58 2 57 24 45 12 -6
33 -10 48 -8 35 4 41 39 13 70 -20 21 -28 48 -15 48 4 0 13 -8 20 -17 11 -15
13 1 14 110 l0 127 -500 0 -499 0 20 -35 c33 -56 21 -68 -45 -44 -72 25 -130
24 -172 -2 -19 -11 -34 -24 -34 -28 0 -5 20 -11 45 -14 69 -10 145 -53 145
-83 0 -10 -15 -13 -52 -11 -52 2 -53 2 -51 -27 2 -25 0 -27 -20 -20 -49 17
-96 9 -128 -21 -27 -27 -59 -74 -59 -90 0 -11 28 -4 40 10 19 23 73 18 126
-10 26 -14 50 -27 52 -30 2 -2 -13 -12 -35 -23 -21 -11 -47 -29 -57 -41 -11
-12 -26 -21 -35 -21 -29 0 -62 -31 -82 -77 -24 -56 -24 -66 1 -58 11 4 20 2
20 -4 0 -16 42 -13 68 5 15 10 32 13 53 9 26 -6 35 -2 64 30 19 20 38 48 42
63 8 33 19 42 56 42 l28 0 -20 -26 c-15 -20 -18 -30 -11 -39 8 -10 3 -16 -23
-24 -56 -19 -101 -84 -95 -137 4 -38 34 -44 49 -10 7 14 19 26 27 26 8 0 36
23 63 50 27 28 57 50 68 50 28 0 45 25 32 48 -10 18 -6 20 37 27 26 3 71 14
100 23 47 14 59 14 110 1 31 -7 57 -18 56 -24 0 -5 -31 -25 -68 -43 -51 -25
-70 -40 -81 -65 -12 -28 -12 -33 2 -44 15 -12 15 -15 -5 -36 -27 -29 -30 -62
-4 -52 48 20 52 19 52 -18 0 -48 13 -53 43 -17 14 16 32 30 40 30 8 0 21 7 28
16 7 9 24 20 37 25 20 8 23 14 17 39 -8 35 0 38 31 9 22 -21 24 -21 50 -4 l26
17 -33 34 c-18 19 -28 34 -21 34 29 0 222 -256 222 -295 0 -4 -12 -4 -26 -1
-32 8 -60 -14 -69 -55 -7 -32 -15 -35 -46 -16 -17 10 -22 9 -32 -4 -7 -9 -23
-16 -37 -15 -20 1 -26 -4 -28 -27 -2 -16 4 -40 13 -54 16 -24 16 -26 0 -35
-13 -8 -15 -18 -10 -44 8 -47 0 -43 -30 16 -27 54 -60 79 -78 61 -9 -9 -8 -17
1 -32 16 -25 10 -36 -8 -14 -7 8 -25 15 -41 15 -22 0 -29 5 -29 20 0 45 -66
46 -90 0 -6 -11 -16 -17 -25 -14 -20 8 -31 -22 -15 -41 7 -8 24 -21 39 -28 19
-9 25 -19 23 -36 -3 -22 -1 -23 47 -20 43 3 51 1 51 -13 0 -13 8 -18 29 -18
17 0 33 -5 36 -11 4 -5 19 -15 33 -22 l27 -11 -27 -4 c-16 -2 -28 -8 -28 -13
0 -12 -27 -11 -67 3 -26 9 -41 10 -65 0 -22 -8 -36 -8 -51 -1 -26 14 -68 -16
-79 -56 -9 -34 -1 -50 17 -35 9 8 14 5 18 -11 5 -19 11 -20 49 -15 l43 7 -27
-16 c-16 -9 -28 -21 -28 -28 0 -7 -5 -4 -11 6 -8 14 -14 16 -24 7 -8 -7 -18
-9 -23 -6 -13 8 -39 -24 -53 -62 -6 -18 -15 -32 -21 -32 -14 0 0 57 23 94 23
38 24 59 4 76 -12 10 -19 10 -27 2 -19 -19 -28 -14 -28 16 0 15 -7 36 -15 46
-12 16 -20 18 -43 10 -22 -8 -27 -15 -25 -41 2 -18 -4 -36 -12 -43 -8 -7 -15
-19 -15 -27 0 -10 -5 -11 -19 -4 -14 8 -22 7 -31 -4 -6 -7 -23 -15 -38 -17
-24 -3 -28 -8 -35 -58 -9 -64 5 -83 54 -73 33 6 37 -3 12 -23 -16 -12 -16 -15
-3 -24 8 -5 26 -10 40 -10 15 0 31 -5 38 -12 18 -18 -29 -38 -70 -28 -22 5
-26 8 -11 9 12 1 25 5 28 11 4 6 -5 7 -23 4 -23 -5 -30 -1 -40 21 -16 34 -65
33 -70 -2 -2 -13 -17 -36 -33 -52 -31 -31 -39 -78 -15 -87 8 -3 28 2 45 10 38
20 47 20 55 0 3 -8 2 -13 -2 -10 -14 8 -72 -23 -72 -39 0 -13 6 -15 32 -10 18
4 39 11 48 16 8 4 30 13 49 18 33 11 34 10 17 -8 -10 -11 -25 -16 -39 -14 -16
3 -34 -5 -56 -26 -18 -17 -41 -31 -50 -31 -9 0 -22 -5 -29 -12 -15 -15 -16
-75 0 -80 7 -3 4 -15 -11 -35 -30 -40 -26 -88 7 -87 12 0 22 -5 22 -13 0 -7 6
-13 14 -13 8 0 17 -12 20 -26 5 -18 12 -24 22 -20 8 3 28 -4 45 -16 19 -15 41
-21 64 -20 l35 3 0 -141 c0 -88 -4 -139 -10 -135 -5 3 -18 -3 -30 -15 -21 -21
-40 -26 -40 -10 0 5 14 17 30 25 17 9 28 20 25 25 -10 16 -33 12 -45 -7 -8
-15 -9 -13 -4 10 9 40 -3 77 -25 77 -11 0 -22 -6 -24 -12 -3 -7 -6 -1 -6 15
-1 23 -5 27 -29 27 -33 0 -52 -16 -52 -44 0 -18 -1 -18 -19 -2 -12 11 -21 14
-26 7 -3 -6 -11 -11 -17 -11 -6 0 -3 9 7 20 24 26 12 37 -22 21 -19 -8 -24 -9
-17 -1 6 6 9 22 6 36 -5 28 -42 34 -62 9 -9 -11 -7 -21 14 -48 14 -19 26 -40
26 -48 0 -9 -8 -5 -19 10 -10 13 -20 20 -23 15 -3 -5 -3 -3 -2 3 3 14 -33 43
-53 43 -21 0 -15 -27 12 -48 l24 -19 -23 -12 c-12 -7 -26 -11 -32 -10 -20 4
-26 -2 -15 -15 9 -10 8 -16 -4 -26 -8 -7 -15 -16 -15 -21 0 -17 25 -9 38 11 7
11 20 20 30 20 16 -1 16 -1 0 -14 -10 -7 -18 -18 -18 -23 0 -6 -13 -16 -30
-23 -38 -16 -38 -39 0 -47 17 -3 30 -11 30 -19 0 -20 -16 -25 -29 -10 -7 8
-23 17 -36 20 -24 6 -24 9 -28 114 l-3 107 -2 -112 c-1 -67 -6 -113 -12 -113
-5 0 -10 4 -10 9 0 5 -8 12 -18 16 -11 3 -24 17 -30 30 -9 18 -19 25 -41 25
-36 0 -55 -22 -47 -55 7 -26 -5 -32 -38 -19 -23 9 -20 27 4 21 16 -4 20 0 20
18 0 57 -121 92 -128 37 -3 -17 -9 -22 -27 -19 -13 1 -27 6 -31 10 -12 12 -68
7 -88 -8 -18 -13 -36 -40 -52 -75 -4 -8 -14 -23 -22 -32 -14 -17 -7 -18 136
-18 95 0 152 -4 152 -10 0 -6 -78 -10 -215 -10 -137 0 -215 4 -215 10 0 6 5
10 11 10 8 0 10 18 6 61 -5 44 -3 68 8 89 8 16 15 53 15 82 -1 57 -3 57 -45
-14 l-20 -33 -6 80 c-3 44 -12 95 -20 113 -12 30 -12 34 9 54 l22 22 2 -59 1
-60 7 45 c4 25 8 39 8 31 1 -8 5 -12 8 -9 3 4 -2 21 -11 38 l-17 32 -21 -20
-22 -21 2 47 c1 43 1 44 -6 12 -7 -35 -7 -34 -15 20 -5 30 -8 64 -6 75 2 18 0
18 -17 -4 l-19 -24 -14 89 c-7 49 -16 92 -19 96 -3 4 -7 -29 -9 -73 -2 -57 2
-88 14 -110 14 -28 14 -34 0 -70 -20 -50 -20 -87 -1 -134 9 -20 13 -46 10 -58
-6 -21 -6 -21 14 2 24 26 25 49 11 138 -7 44 -7 69 1 90 11 24 13 25 16 8 18
-102 29 -146 46 -184 16 -35 18 -57 13 -107 -5 -50 -3 -63 9 -68 14 -5 20 2
54 59 10 17 12 13 7 -23 -2 -24 -12 -52 -21 -62 -13 -15 -15 -29 -10 -73 8
-63 3 -76 -60 -147 -41 -46 -50 -61 -46 -82 0 -5 -4 -8 -10 -8 -17 0 -3 59 21
93 12 15 17 27 12 27 -14 0 -49 -43 -57 -68 -10 -35 2 -103 27 -142 l21 -35
12 35 13 35 7 -30 c4 -16 13 -47 20 -69 l12 -38 6 47 c9 63 9 77 -3 95 -9 13
-11 13 -19 1 -8 -12 -11 -9 -16 12 -9 34 -21 35 -29 2 -4 -14 -10 -25 -15 -25
-10 0 -2 48 10 56 5 3 9 14 9 25 0 10 16 37 36 59 l36 40 199 0 c189 0 200 -1
220 -21 11 -11 29 -19 38 -16 14 3 22 -7 34 -46 9 -28 14 -53 12 -55 -6 -7
-109 90 -113 105 -5 19 -20 16 -18 -4 0 -10 -7 -19 -19 -21 -44 -7 -50 -16
-15 -21 30 -5 35 -9 32 -31 -5 -34 -19 -47 -34 -32 -17 17 -39 15 -32 -3 4 -8
13 -15 22 -15 12 0 13 -3 5 -11 -9 -9 -21 -6 -49 10 -37 22 -63 20 -32 -3 15
-11 15 -13 0 -23 -15 -10 -13 -12 13 -13 l30 -2 -35 -12 -35 -13 38 -12 c20
-7 37 -17 37 -22 0 -26 -109 45 -110 72 0 3 -29 5 -63 5 -40 -1 -70 4 -80 12
-39 33 -50 -36 -17 -109 24 -54 25 -92 3 -110 -9 -8 -14 -9 -10 -2 4 6 2 24
-5 40 l-11 28 -6 -29 c-7 -37 -23 -43 -36 -14 -14 32 -31 33 -56 4 -27 -31
-54 -33 -71 -6 -7 11 -16 20 -20 20 -4 0 -10 -9 -13 -20 -3 -11 -12 -20 -19
-20 -29 0 -35 25 -27 115 6 67 9 77 10 38 1 -57 17 -79 27 -38 11 44 -4 124
-31 171 -14 24 -28 44 -31 44 -5 0 5 -78 13 -100 8 -20 4 -59 -9 -93 -8 -20
-7 -31 2 -42 10 -12 10 -19 2 -27 -7 -7 -12 -25 -12 -40 0 -34 -13 -36 -34 -6
-22 31 -20 57 9 103 33 53 31 90 -6 161 -17 32 -40 77 -51 98 -28 54 -28 124
0 167 21 33 22 33 28 12 8 -30 28 -29 42 2 19 40 14 75 -17 141 -16 34 -32 80
-36 103 -4 22 -11 41 -17 41 -16 0 0 -68 33 -132 19 -38 29 -73 29 -102 0 -53
-16 -68 -30 -31 l-10 27 -80 -7 c-90 -8 -103 2 -45 36 27 17 35 27 35 51 0 16
5 38 11 49 6 12 8 37 4 61 l-7 40 -22 -20 c-29 -26 -60 -42 -85 -42 -36 0 -24
33 26 70 54 41 64 59 34 67 -12 3 -21 10 -21 15 0 10 -30 7 -62 -7 -31 -13
-20 16 19 50 l37 32 -27 37 c-16 20 -35 36 -43 36 -21 0 -17 21 5 27 11 3 22
12 26 21 6 16 -1 23 -42 48 -17 11 -17 13 -1 47 21 45 14 67 -21 68 l-26 1 26
11 c53 24 77 57 41 57 -28 0 -34 11 -16 31 14 16 14 18 -5 29 -25 13 -29 61
-6 80 8 7 15 21 15 32 0 15 -3 17 -19 8 -34 -18 -45 -11 -22 14 14 15 19 26
12 31 -6 3 -11 17 -11 31 0 14 -5 34 -11 45 -7 13 -7 24 -1 32 10 11 7 44 -17
262 -8 68 -8 68 -10 19 0 -29 -6 -98 -12 -155 -6 -57 -12 -126 -14 -154 -1
-27 -3 -53 -4 -57 0 -5 -10 -8 -21 -8 -22 0 -27 -24 -8 -36 7 -5 5 -11 -7 -20
-18 -13 -18 -15 5 -39 l23 -25 -26 0 c-30 0 -32 -7 -15 -45 9 -21 9 -27 -6
-38 -14 -10 -16 -21 -10 -55 6 -40 9 -43 31 -37 18 4 24 2 20 -7 -2 -8 -17
-12 -40 -10 -29 2 -35 0 -32 -15 2 -10 7 -35 10 -55 5 -34 9 -38 37 -38 26 0
29 -2 18 -15 -7 -8 -24 -15 -39 -15 -29 0 -67 35 -50 46 6 4 5 11 -3 21 -7 8
-14 29 -15 47 -4 43 -11 90 -14 96 -3 8 -7 24 -9 45 -1 11 -9 -6 -18 -37 -9
-31 -20 -60 -24 -64 -4 -3 -2 -16 3 -27 8 -14 8 -22 -1 -27 -7 -4 -10 -14 -8
-21 3 -8 -2 -20 -11 -27 -12 -10 -13 -15 -3 -18 17 -8 15 -24 -3 -24 -18 0
-20 -26 -2 -34 9 -5 9 -7 -1 -12 -6 -3 -10 -9 -7 -14 3 -4 -2 -13 -10 -20 -24
-20 -18 -40 13 -41 27 0 27 -1 5 -11 -24 -11 -31 -28 -12 -28 5 0 7 -4 4 -10
-3 -6 -14 -10 -23 -10 -21 0 -52 -34 -52 -56 0 -8 -4 -12 -10 -9 -16 10 -12
-28 6 -53 19 -27 4 -29 -21 -2 -10 11 -25 20 -33 20 -14 0 -14 -2 4 -67 5 -17
2 -23 -10 -23 -9 0 -16 -5 -16 -11 0 -6 9 -9 20 -6 13 3 20 0 20 -8 0 -8 9
-17 21 -20 16 -5 18 -10 9 -20 -17 -21 -3 -35 33 -35 l32 0 -38 -25 c-27 -19
-37 -33 -37 -51 0 -16 -10 -34 -25 -46 -13 -10 -24 -24 -22 -30 1 -6 -13 -15
-31 -18 -18 -4 -41 -15 -51 -25 -18 -16 -19 -15 -26 14 -4 20 -15 33 -33 40
-25 9 -25 9 -4 10 12 1 22 7 22 15 0 18 -45 54 -76 62 -13 3 -30 16 -38 29
-21 31 -59 39 -98 19 -28 -15 -32 -15 -40 0 -16 29 -47 39 -79 26 -35 -15 -46
-45 -25 -69 16 -17 15 -19 -5 -24 -17 -5 -20 -11 -15 -30 5 -21 2 -25 -25 -31
-22 -4 -34 -15 -44 -41 -8 -19 -15 -44 -15 -55 0 -20 5 -20 298 -20 195 0 292
-4 282 -10 -32 -21 -613 -9 -752 16 -39 6 -53 24 -20 24 31 0 80 69 65 93 -4
6 -6 22 -5 34 2 16 -5 26 -26 37 -16 8 -36 26 -46 40 -20 32 -21 42 -1 26 13
-10 19 -10 33 3 10 9 27 13 44 10 20 -4 34 2 54 22 24 24 25 29 13 39 -9 6
-18 19 -22 29 -4 11 -16 21 -26 24 -26 7 -35 53 -10 53 22 0 37 46 22 69 -6 9
-20 17 -32 19 -23 4 -26 14 -10 43 9 18 8 19 -18 13 -28 -7 -28 -7 -9 14 18
21 18 21 -13 29 -17 4 -30 13 -29 18 2 6 7 9 12 7 15 -5 56 28 56 45 0 9 -7
25 -16 34 -14 16 -15 23 -4 49 15 36 7 60 -20 60 -11 0 -20 7 -20 15 0 18 -34
37 -54 29 -11 -4 -16 0 -16 14 0 45 -30 71 -44 40 -3 -7 -2 32 2 87 3 55 7
200 7 322 0 205 1 222 17 217 9 -3 26 1 37 8 17 10 24 9 45 -11 34 -32 77 -26
87 13 10 36 4 46 -24 46 -18 0 -23 6 -22 28 0 23 -4 27 -28 25 -24 -2 -26 1
-17 17 8 15 4 26 -21 55 -34 39 -74 47 -83 17 -6 -19 -20 -852 -21 -1237 0
-115 4 -278 8 -360 l8 -150 -46 3 -45 4 0 47 c2 202 23 683 39 901 13 169 21
361 21 530 l1 265 80 84 c74 77 81 82 78 55 -1 -16 3 -40 8 -54 6 -14 14 -39
17 -57 9 -40 42 -83 63 -83 9 0 25 7 35 17 17 15 19 15 38 -2 13 -11 27 -15
44 -11 20 5 26 2 32 -16 6 -21 8 -19 20 16 16 44 6 99 -24 136 -15 19 -22 21
-39 12 -21 -12 -33 -7 -33 13 0 8 10 10 25 7 33 -6 33 17 -1 57 l-26 31 41 0
c38 0 41 -2 51 -39 13 -51 46 -91 74 -91 15 0 28 -10 37 -27 l13 -28 4 35 c4
35 17 60 33 60 4 0 13 -25 19 -56 12 -55 42 -100 60 -89 4 3 11 18 15 34 8 37
26 53 45 41 33 -21 42 -12 35 33 -5 38 -5 40 9 24 29 -37 79 -67 101 -61 15 4
24 0 29 -11 3 -9 10 -13 16 -10 14 9 12 62 -2 68 -10 4 -10 8 1 15 23 16 5 62
-29 75 -22 8 -28 16 -24 29 3 12 -1 20 -13 25 -10 4 -24 15 -32 26 -7 10 -21
17 -31 14 -10 -2 -22 4 -29 15 -9 14 -20 19 -37 15 -30 -5 -31 6 -2 25 26 18
18 48 -13 48 -15 0 -19 4 -15 16 4 9 2 22 -4 29 -12 14 33 52 87 74 30 12 34
12 52 -10 17 -21 21 -22 44 -10 16 9 45 12 80 9 l54 -4 -1 40 c-1 33 -6 44
-31 61 -21 14 -29 27 -27 42 4 25 -31 53 -65 53 -13 0 -24 8 -28 20 -5 16 -12
19 -32 14 -18 -5 -24 -3 -19 5 9 14 -9 14 -35 1 -15 -8 -23 -7 -35 5 -21 20
-37 19 -59 -5 -10 -11 -24 -20 -32 -20 -30 0 -92 -41 -112 -74 -20 -32 -88
-82 -98 -72 -3 2 13 16 34 30 32 22 34 26 16 26 -36 0 -102 -30 -108 -50 -11
-36 -31 -43 -64 -24 -24 14 -35 16 -53 6 -13 -6 -36 -13 -53 -14 -21 -2 -34
-11 -43 -30 -7 -16 -19 -28 -27 -28 -8 0 -18 -7 -23 -16 -6 -10 -12 -13 -16
-6 -8 13 3 42 16 42 6 0 28 20 50 45 48 55 76 71 91 56 20 -20 49 -11 85 26
26 29 42 37 62 35 19 -2 33 3 42 16 10 15 31 21 85 27 58 6 75 11 86 28 16 25
12 47 -9 47 -18 0 -18 14 1 30 8 7 15 17 15 21 0 6 -232 9 -557 8 -366 0 -552
-4 -540 -10 9 -6 17 -19 17 -30 0 -17 -3 -18 -21 -8 -17 9 -25 7 -44 -11 -15
-15 -25 -18 -30 -10 -4 6 -21 10 -38 8 -26 -2 -33 1 -35 18 -2 16 2 22 14 20
9 0 19 5 21 12 4 9 -28 12 -136 12 l-141 0 0 -340z m758 255 c13 -24 17 -26
20 -12 2 9 -6 33 -18 52 -12 19 -18 35 -13 35 14 0 43 -56 43 -82 0 -13 -11
-39 -25 -58 -25 -35 -33 -34 -15 1 12 20 -14 84 -44 108 -9 8 -16 18 -16 24 0
16 50 -34 68 -68z m-248 -26 c0 -22 -17 -24 -42 -5 -25 18 -23 23 12 24 23 0
30 -4 30 -19z m110 -1 c0 -7 -12 -24 -26 -39 -26 -27 -25 -49 2 -49 8 0 14 -6
14 -13 0 -24 50 -59 76 -54 26 5 41 -7 24 -18 -6 -4 -38 -7 -71 -9 -55 -2 -59
0 -57 19 2 14 -3 21 -18 23 -18 3 -21 9 -18 41 4 45 21 93 37 103 18 12 37 9
37 -4z m-73 -20 c-4 -13 -9 -42 -13 -66 -6 -40 -9 -43 -31 -37 -13 3 -33 1
-44 -6 -24 -12 -31 -9 -20 9 4 6 19 13 34 14 22 2 29 9 37 38 5 19 10 43 10
53 0 9 7 17 16 17 12 0 15 -6 11 -22z m4474 -21 c-12 -13 -44 -34 -71 -47 -52
-25 -55 -34 -28 -95 32 -71 35 -70 42 15 6 69 10 79 22 69 20 -16 18 -44 -10
-122 -13 -38 -22 -76 -19 -85 2 -9 -12 -60 -31 -112 l-35 -95 0 62 c-1 53 2
64 22 80 30 23 38 54 24 98 -7 23 -16 35 -29 35 -15 0 -18 8 -18 55 0 39 -8
71 -25 108 -14 29 -20 44 -13 33 42 -61 44 -62 75 -44 17 11 27 24 25 35 -3
15 -2 15 13 3 14 -12 20 -10 43 13 32 32 44 26 13 -6z m-587 -37 c14 -22 23
-40 19 -40 -9 0 -34 35 -45 63 -12 28 -2 20 26 -23z m-2971 -5 c-17 -7 -38
-26 -47 -42 -11 -20 -15 -23 -16 -10 0 25 45 67 72 67 20 -1 19 -3 -9 -15z
m-1313 -5 c0 -5 13 -7 29 -4 27 6 30 3 40 -27 5 -19 17 -53 25 -77 14 -38 15
-46 1 -70 l-14 -27 -1 45 c0 55 -26 100 -74 129 -20 13 -34 27 -30 32 7 12 24
12 24 -1z m930 -5 c-7 -9 -15 -13 -17 -11 -7 7 7 26 19 26 6 0 6 -6 -2 -15z
m446 -10 c33 -17 58 -19 82 -6 21 11 129 26 121 17 -6 -6 -60 -18 -147 -33
-19 -3 -44 0 -58 7 -20 11 -29 11 -51 -1 -46 -22 -49 -21 -18 5 35 30 35 30
71 11z m2879 5 c-4 -6 3 -18 14 -28 18 -15 19 -22 11 -57 -5 -22 -10 -61 -10
-86 0 -57 -7 -65 -37 -37 -28 26 -30 48 -4 48 11 0 23 5 27 11 4 8 -1 9 -17 4
-31 -10 -36 -10 -85 -1 -40 8 -45 12 -72 69 -2 4 5 7 16 7 11 0 35 14 52 32
19 18 43 32 61 33 17 2 33 6 36 9 10 10 15 7 8 -4z m-4021 -22 c-20 -35 -46
-68 -54 -68 -12 0 -42 31 -36 38 3 2 13 -1 22 -9 15 -12 20 -10 42 19 24 32
40 43 26 20z m4451 -48 c28 -31 8 -37 -23 -7 -19 20 -22 27 -11 27 9 0 24 -9
34 -20z m-4007 -43 c3 -24 0 -27 -27 -27 -38 0 -71 41 -51 65 19 23 74 -3 78
-38z m-538 -19 c0 -16 -4 -28 -10 -28 -5 0 -10 19 -10 43 0 31 3 38 10 27 5
-8 10 -27 10 -42z m616 17 c-6 -19 -13 -30 -14 -25 -6 16 7 60 17 60 4 0 3
-16 -3 -35z m3805 -7 c39 -31 41 -59 2 -43 -10 5 -26 7 -35 6 -14 -2 -18 5
-18 33 0 20 3 36 6 36 3 0 23 -14 45 -32z m-231 -50 c0 -22 13 -23 30 -3 8 9
21 13 36 9 21 -5 26 -1 36 27 l11 32 24 -27 c26 -31 30 -73 8 -102 -19 -25
-19 -70 0 -78 24 -9 17 -26 -10 -26 -17 0 -29 9 -39 28 -8 15 -37 49 -65 77
-51 49 -79 104 -65 127 9 13 33 -33 34 -64z m-3593 -10 c-3 -8 -6 -5 -6 6 -1
11 2 17 5 13 3 -3 4 -12 1 -19z m577 -38 c33 -33 -48 -15 -85 19 l-21 20 48
-15 c27 -8 53 -19 58 -24z m-1021 0 l22 -1 -24 -19 c-41 -35 -65 -17 -45 35 6
16 8 16 16 1 5 -9 19 -16 31 -16z m-72 -17 l-4 -38 -10 29 c-7 20 -12 25 -18
15 -11 -18 -21 -6 -13 15 3 9 16 16 28 16 20 0 21 -4 17 -37z m4467 -34 c0
-40 4 -86 7 -103 l6 -31 -18 30 c-11 17 -34 56 -52 87 l-32 57 33 15 c53 23
54 21 56 -55z m-3735 21 c3 -10 19 -25 37 -32 l33 -13 -28 -33 c-33 -40 -64
-57 -77 -44 -6 6 4 21 27 41 20 17 33 31 30 31 -15 0 -62 -31 -84 -54 -29 -30
-41 -33 -41 -8 0 9 18 33 40 52 46 40 49 47 18 52 -37 5 -34 28 5 28 26 0 36
-5 40 -20z m3218 -15 c0 -16 -150 -40 -164 -26 -8 8 1 11 34 12 24 0 60 6 79
13 39 15 52 15 51 1z m428 -11 c12 -15 46 -79 77 -143 l56 -116 -4 -287 c-2
-158 -7 -291 -11 -294 -4 -4 -13 1 -21 11 -8 11 -20 16 -30 12 -9 -4 -16 -5
-16 -3 0 3 -3 12 -6 21 -5 13 -2 15 19 10 l25 -7 6 169 c3 92 8 208 10 257 3
48 2 86 -1 82 -9 -9 -104 74 -116 102 -9 20 -8 26 6 33 19 11 24 83 7 94 -9 5
-40 69 -40 81 0 13 22 0 39 -22z m-4161 -12 c4 -13 -57 -76 -65 -68 -3 3 5 23
18 46 22 39 38 47 47 22z m4281 -49 c-1 -48 -3 -53 -9 -28 -11 45 -11 85 0 85
6 0 9 -25 9 -57z m-3619 18 l43 -19 -59 -11 c-33 -7 -70 -14 -83 -17 -24 -5
-24 -5 5 30 34 41 39 42 94 17z m-442 -7 c15 -10 22 -25 22 -46 l0 -31 -35 39
c-19 21 -34 42 -35 47 0 12 24 8 48 -9z m-178 -6 c0 -7 -16 -26 -35 -41 -26
-21 -41 -26 -57 -21 -21 6 -20 8 17 40 41 34 75 44 75 22z m153 -39 l37 -52
-1 -116 c-1 -72 -4 -105 -8 -86 -4 17 -31 79 -59 138 -50 105 -51 110 -37 138
9 16 19 29 23 29 4 0 24 -23 45 -51z m117 6 c0 -32 17 -32 42 0 16 20 23 23
34 14 24 -19 16 -64 -19 -110 -19 -24 -39 -54 -46 -66 -23 -44 -31 -23 -31 82
0 63 4 105 10 105 6 0 10 -11 10 -25z m399 0 c-13 -13 -61 -26 -184 -51 -29
-6 -29 -6 -12 12 11 12 49 25 100 35 112 23 115 23 96 4z m-999 -46 c0 -33 -2
-34 -29 -17 -15 9 -26 9 -47 -1 -23 -10 -30 -10 -42 3 -22 21 -5 38 31 31 21
-4 39 -1 52 9 26 18 35 12 35 -25z m414 -35 c15 -31 25 -58 23 -60 -5 -5 -97
65 -97 73 0 9 32 43 40 43 4 0 20 -25 34 -56z m-214 36 c13 -8 13 -10 -2 -10
-9 0 -20 5 -23 10 -8 13 5 13 25 0z m654 -124 c6 -26 5 -28 -8 -17 -9 8 -16
25 -16 39 0 32 15 18 24 -22z m-774 -81 c-27 -103 -35 -123 -45 -114 -7 8 14
179 26 200 5 10 18 19 28 19 18 0 18 -6 -9 -105z m215 78 c9 -11 18 -14 31 -8
24 11 82 16 112 9 19 -4 52 -53 52 -78 0 -2 -19 -6 -42 -8 -33 -3 -46 1 -64
19 -27 27 -64 31 -64 6 0 -16 -1 -16 -16 -1 -13 13 -22 14 -40 6 -18 -8 -27
-8 -39 2 -14 12 -13 16 11 42 32 32 42 34 59 11z m-337 -52 c6 -76 -6 -82 -38
-21 -16 30 -29 59 -30 63 0 5 15 7 33 5 30 -3 32 -5 35 -47z m180 26 c2 -9 -9
-33 -23 -54 -26 -36 -27 -37 -21 -9 4 15 10 41 13 58 6 30 26 33 31 5z m-139
-54 c0 -38 -4 -77 -8 -88 -7 -18 -8 -18 -18 -1 -16 28 -2 156 17 156 6 0 10
-30 9 -67z m172 10 c-29 -25 -32 -33 -29 -73 l3 -45 75 3 c84 3 85 5 -23 -68
-44 -28 -96 -69 -117 -90 -57 -57 -68 -31 -24 64 31 67 28 96 -4 34 l-22 -43
0 43 c0 29 4 42 14 42 7 0 30 28 51 62 45 73 69 98 92 98 12 0 8 -8 -16 -27z
m-441 -129 c0 -8 -4 -12 -10 -9 -5 3 -10 13 -10 21 0 8 5 12 10 9 6 -3 10 -13
10 -21z m665 6 c-3 -5 -15 -10 -25 -10 -10 0 -22 -4 -25 -10 -3 -5 -15 -10
-26 -10 -21 0 -25 -10 -8 -27 7 -7 3 -12 -15 -17 -22 -5 -26 -12 -25 -44 3
-106 -36 -220 -145 -422 l-51 -95 -6 75 c-4 41 -7 125 -8 185 l-1 111 30 11
c16 6 35 23 42 38 11 24 10 29 -10 45 l-22 18 62 47 c35 26 81 55 103 65 22
10 56 25 75 33 41 18 64 21 55 7z m25 -35 c34 -19 60 -19 76 3 12 16 13 15 14
-6 0 -13 -5 -32 -10 -43 -10 -17 -13 -18 -34 -4 -12 8 -25 12 -28 9 -4 -3 -12
4 -18 16 -7 12 -18 19 -26 16 -8 -3 -14 1 -14 9 0 18 8 18 40 0z m100 -95 c0
-30 -3 -38 -15 -34 -20 8 -29 42 -15 59 21 25 30 17 30 -25z m-180 -1 c0 -12
-58 -99 -66 -99 -13 0 10 77 28 93 23 19 38 22 38 6z m-364 -104 c-21 -31 -56
-42 -68 -21 -5 9 -16 16 -23 16 -20 0 -19 14 1 31 14 12 14 14 -2 26 -24 17
-10 29 19 16 17 -8 30 -7 48 2 23 13 24 12 32 -17 6 -21 4 -37 -7 -53z m455
68 c8 -9 29 -22 48 -30 l34 -15 -7 -181 c-12 -272 -19 -346 -36 -357 -25 -17
-43 -7 -52 28 -11 40 -28 37 -42 -6 -9 -24 -14 -30 -23 -21 -14 14 -72 2 -80
-17 -3 -7 -1 -27 5 -43 10 -28 10 -28 -19 -18 -36 14 -42 7 -29 -29 l10 -29
-18 23 c-19 24 -32 21 -32 -8 0 -23 39 -72 52 -64 13 8 78 -27 78 -43 0 -16
-12 -17 -27 -2 -17 17 -63 2 -63 -19 0 -10 5 -23 11 -29 11 -11 -62 -10 -81 2
-17 10 -40 -15 -40 -43 0 -32 56 -92 85 -92 12 0 30 -7 41 -15 18 -15 18 -15
-9 -9 -15 3 -33 1 -41 -5 -11 -9 -15 -7 -19 9 -3 13 -13 20 -30 20 -30 0 -43
-29 -28 -59 13 -23 -6 -42 -19 -20 -15 23 -44 484 -34 517 4 9 34 72 67 138
l62 122 70 10 70 11 -68 -4 c-78 -3 -77 -13 -21 119 44 104 82 160 100 145 14
-12 54 4 54 21 0 15 16 12 31 -7z m-620 -56 c-7 -9 -5 -16 9 -25 12 -7 19 -21
17 -34 -3 -30 38 -51 67 -35 12 6 29 10 38 9 10 -2 23 8 31 24 13 25 15 11 21
-152 3 -98 2 -195 -2 -214 l-8 -34 -39 49 c-61 77 -133 145 -152 145 -13 0
-14 3 -5 12 7 7 12 18 12 26 0 8 11 23 25 34 28 22 36 78 11 78 -8 0 -18 -4
-21 -10 -14 -22 -23 -8 -12 19 9 26 7 34 -18 67 l-28 37 29 24 c24 19 30 20
32 7 2 -8 -1 -21 -7 -27z m4859 33 c0 -5 -5 -10 -11 -10 -5 0 -17 -16 -25 -35
-8 -19 -19 -35 -24 -35 -14 0 -13 6 13 50 20 37 47 53 47 30z m-212 -117 c-22
-6 -30 -30 -18 -54 15 -28 2 -23 -29 10 -32 34 -55 33 -96 -5 -32 -29 -33 -15
-1 23 21 26 30 28 92 29 38 1 62 -1 52 -3z m-4405 -188 c6 -123 -7 -93 -18 43
-4 56 -3 83 3 77 5 -5 12 -59 15 -120z m4431 99 c20 -20 20 -27 -2 -41 -17
-10 -18 -7 -18 23 1 39 0 39 20 18z m231 -53 c-3 -6 -11 -11 -17 -11 -6 0 -6
6 2 15 14 17 26 13 15 -4z m83 -46 c-1 -19 -5 -35 -9 -35 -4 0 -11 -9 -14 -20
-3 -11 -22 -32 -42 -47 l-35 -27 -19 23 c-20 25 -17 43 3 23 23 -23 57 -14 78
21 25 40 25 46 0 40 -11 -3 -20 0 -20 6 0 6 9 11 19 11 11 0 23 9 26 20 10 30
15 24 13 -15z m-465 -15 c-3 -11 -9 -17 -15 -14 -5 3 -4 12 3 20 16 19 18 18
12 -6z m-53 -15 c29 -31 20 -42 -20 -25 -23 10 -37 10 -55 2 -14 -7 -25 -10
-25 -8 0 3 -3 12 -6 21 -5 13 -2 15 18 10 16 -4 29 -1 37 9 18 21 24 20 51 -9z
m118 -22 c11 -21 10 -93 0 -93 -5 0 -12 0 -18 0 -10 0 -40 52 -40 70 0 6 11
-2 25 -17 18 -20 23 -22 18 -9 -5 15 -3 17 8 12 8 -4 3 1 -10 12 -13 11 -21
24 -17 31 10 16 24 14 34 -6z m137 -274 c2 -151 8 -305 14 -344 6 -38 14 -172
18 -297 6 -224 6 -228 -14 -228 -19 0 -20 9 -28 298 -15 591 -20 708 -28 675
-18 -71 -52 -49 -60 40 -4 34 -9 73 -12 87 -3 14 6 3 20 -24 14 -28 25 -57 25
-65 1 -11 8 -8 25 12 14 15 25 33 25 39 0 5 -8 0 -19 -13 l-18 -23 -17 32 c-9
17 -16 40 -16 52 0 21 24 28 35 10 11 -18 35 -10 35 12 0 12 3 19 6 16 3 -3 7
-129 9 -279z m-399 240 c-3 -17 -1 -39 4 -50 12 -21 10 -22 -14 -13 -9 3 -16
17 -16 30 0 31 -11 30 -49 -5 -30 -28 -31 -28 -48 -9 -19 21 -64 21 -71 -1 -3
-10 0 -12 12 -8 9 4 16 2 16 -3 0 -6 -11 -10 -25 -10 -28 0 -30 7 -11 32 16
22 71 34 80 19 12 -19 41 -12 82 18 21 16 41 30 43 30 2 1 1 -13 -3 -30z m486
16 c3 3 11 -1 17 -9 10 -11 9 -21 -3 -44 -8 -16 -22 -32 -31 -35 -12 -5 -15 3
-15 50 0 45 2 53 13 44 8 -6 16 -9 19 -6z m-407 -105 c-3 -5 -17 -10 -30 -10
-13 0 -35 -4 -49 -10 -34 -13 -33 -5 2 14 31 17 86 21 77 6z m585 0 c0 -5 -11
-10 -24 -10 -43 0 -71 -70 -50 -124 7 -19 36 -21 66 -5 18 9 17 6 -7 -25 -18
-24 -36 -36 -51 -36 -23 0 -24 3 -25 78 -2 90 -16 56 -18 -42 -1 -52 -5 -64
-38 -105 -66 -82 -74 -79 -33 12 16 37 30 76 30 87 0 11 4 20 9 20 5 0 11 19
15 41 7 45 60 104 100 112 12 2 22 5 24 6 1 0 2 -3 2 -9z m-178 -71 c6 -59 -6
-144 -21 -153 -3 -2 -6 47 -6 110 0 125 16 151 27 43z m-193 -59 c0 -8 -10 5
-24 28 -14 24 -22 49 -18 55 7 11 41 -56 42 -83z m-420 56 c19 -23 -4 -28 -24
-6 -15 17 -16 20 -3 20 9 0 21 -6 27 -14z m-3951 -213 c7 -109 18 -247 27
-308 15 -113 35 -357 35 -432 0 -39 -2 -43 -25 -43 -14 0 -25 1 -25 3 -1 12
-40 937 -40 955 0 12 4 22 8 22 5 0 14 -89 20 -197z m3767 175 c14 -6 25 -15
25 -20 0 -5 -9 -4 -19 2 -26 13 -51 13 -71 -2 -9 -7 -5 -3 8 10 27 26 24 25
57 10z m464 -44 c11 7 41 -3 41 -13 0 -4 -13 -12 -30 -18 -21 -8 -30 -18 -31
-35 -1 -19 -2 -18 -8 7 -4 17 -13 40 -19 52 -17 32 -15 35 13 17 13 -8 28 -13
34 -10z m159 -6 c-3 -7 -20 -23 -39 -36 -19 -13 -37 -31 -41 -40 -9 -22 -10
-3 -2 37 5 24 12 31 30 31 12 0 26 5 29 10 9 14 27 12 23 -2z m-3738 -23 c-7
-8 -17 -15 -22 -15 -6 0 -5 7 2 15 7 8 17 15 22 15 6 0 5 -7 -2 -15z m4064
-73 c-27 -89 -40 -107 -29 -39 7 41 44 131 51 124 2 -2 -8 -40 -22 -85z m-726
48 c16 -25 33 -25 66 1 25 20 38 12 13 -9 -26 -22 -67 -25 -87 -7 -20 18 -26
35 -12 35 4 0 13 -9 20 -20z m128 -11 c3 -6 2 -15 -2 -19 -12 -12 -38 5 -30
19 9 14 23 14 32 0z m565 -28 c-6 -11 -11 -42 -11 -70 0 -40 -10 -70 -54 -158
-30 -60 -63 -117 -74 -126 -19 -17 -19 -16 -25 53 -8 98 12 169 64 228 22 26
48 59 57 74 26 44 66 43 43 -1z m-391 13 c0 -8 -4 -12 -10 -9 -5 3 -10 10 -10
16 0 5 5 9 10 9 6 0 10 -7 10 -16z m53 -34 c-3 -11 -9 -20 -14 -20 -11 0 -11
3 -3 24 9 23 23 20 17 -4z m-83 -33 c-12 -18 -33 -57 -48 -87 -24 -50 -27 -52
-33 -30 -13 45 -10 58 14 62 15 2 29 18 46 50 12 27 27 45 32 42 6 -3 1 -20
-11 -37z m-394 3 c13 0 15 -3 7 -11 -14 -14 -29 -5 -43 24 -10 20 -10 20 3 5
8 -10 22 -18 33 -18z m454 -24 c0 -26 -20 -68 -50 -106 -16 -20 -31 -49 -35
-66 -3 -16 -11 -49 -18 -74 l-12 -45 -5 70 c-5 64 -2 75 26 130 17 33 37 70
45 83 15 24 49 30 49 8z m80 -21 c5 3 10 4 10 1 0 -5 -74 -46 -84 -46 -2 0 1
15 6 34 11 33 12 34 34 19 13 -8 28 -12 34 -8z m-349 -3 c-5 -10 -18 -25 -27
-33 -11 -9 -9 -2 6 19 26 35 36 42 21 14z m-1677 -35 c5 -27 4 -37 -3 -32 -6
3 -11 22 -11 42 0 44 5 41 14 -10z m1481 33 c3 -5 1 -10 -4 -10 -6 0 -11 5
-11 10 0 6 2 10 4 10 3 0 8 -4 11 -10z m-2041 -22 c7 -30 -7 -42 -33 -29 -35
19 -26 41 20 50 4 0 9 -9 13 -21z m2616 -145 c0 -135 -2 -164 -12 -151 -19 23
-55 32 -65 15 -4 -7 -16 -16 -25 -20 -13 -5 -18 -17 -18 -47 0 -44 -2 -45 -30
-28 -28 18 -64 -16 -56 -54 3 -16 2 -28 -3 -28 -30 0 -28 116 4 205 13 39 25
87 25 107 0 47 33 85 115 132 33 19 61 35 63 35 1 1 2 -74 2 -166z m-267 52
c-7 -13 -12 -9 -26 20 -10 20 -13 34 -8 31 5 -3 12 4 16 17 6 20 8 18 17 -15
6 -22 6 -43 1 -53z m-58 25 c8 -16 15 -42 14 -57 l-1 -28 -13 31 c-31 70 -31
114 0 54z m-175 10 c0 -5 -2 -10 -4 -10 -3 0 -8 5 -11 10 -3 6 -1 10 4 10 6 0
11 -4 11 -10z m149 -57 c7 -27 19 -74 28 -105 18 -64 13 -121 -14 -150 -17
-19 -18 -18 -35 29 -10 26 -16 37 -14 23 3 -14 14 -78 26 -142 11 -64 25 -129
30 -143 13 -35 13 -45 -4 -45 -8 0 -17 12 -20 28 -22 101 -67 391 -72 458 -6
75 -5 82 12 87 45 11 51 8 63 -40z m-101 24 c6 -6 10 -34 10 -61 l0 -49 -44
44 c-24 24 -44 47 -44 51 0 16 27 7 50 -17 30 -32 36 -26 15 14 -15 31 -7 43
13 18z m-3260 -13 c-9 -10 -21 -13 -29 -8 -9 5 -8 9 7 15 31 12 39 10 22 -7z
m3092 -33 c0 -11 29 -42 72 -77 99 -81 118 -100 118 -119 0 -9 -9 -19 -20 -22
-15 -4 -20 -14 -20 -42 0 -46 -7 -54 -32 -40 -16 9 -25 6 -50 -18 -16 -16 -38
-27 -49 -25 -15 3 -19 -3 -19 -23 0 -17 -5 -25 -12 -23 -8 3 -15 31 -19 69
l-6 64 -1 -69 c-2 -64 -3 -68 -17 -50 -15 19 -16 18 -39 -8 -14 -16 -28 -28
-32 -28 -4 0 3 11 15 24 21 22 22 30 19 178 -3 135 -1 154 12 151 25 -7 72 36
65 58 -4 11 -2 19 4 19 6 0 11 -8 11 -19z m378 -345 c-2 -117 -6 -160 -15
-164 -10 -3 -13 51 -13 246 0 138 3 259 7 269 12 28 24 -173 21 -351z m-281
337 c6 -18 -34 -25 -59 -11 l-23 12 30 7 c36 8 48 6 52 -8z m-1514 -80 c3 -29
2 -53 -2 -53 -10 0 -21 50 -21 93 0 48 17 19 23 -40z m1567 27 c15 -11 30 -31
32 -44 5 -24 4 -24 -21 -11 -14 7 -43 27 -65 44 l-39 31 33 0 c17 0 44 -9 60
-20z m-3880 -89 c0 -20 7 -47 16 -60 15 -21 23 -23 63 -18 41 5 48 3 56 -16 7
-16 19 -22 41 -23 17 0 43 -9 57 -20 25 -18 26 -23 20 -82 -4 -48 -9 -60 -18
-52 -7 6 -28 15 -47 21 -41 12 -77 -2 -106 -40 -16 -22 -26 -27 -50 -23 l-30
4 -7 116 c-4 65 -10 145 -14 178 -6 49 -4 61 6 57 7 -3 13 -21 13 -42z m1635
-42 c5 -14 1 -25 -12 -34 -17 -13 -16 -14 12 -15 17 -1 24 -4 17 -7 -6 -2 -10
-9 -6 -14 3 -5 -4 -9 -15 -9 -21 0 -47 59 -37 85 8 22 34 18 41 -6z m-1310 -9
c3 -5 1 -10 -4 -10 -6 0 -11 5 -11 10 0 6 2 10 4 10 3 0 8 -4 11 -10z m1253
-32 c17 -17 15 -28 -6 -28 -19 0 -42 18 -42 32 0 12 35 9 48 -4z m-1318 -25
c0 -26 0 -26 -20 -8 -16 14 -17 20 -8 27 22 13 28 9 28 -19z m1470 18 c0 -5
-6 -12 -12 -14 -7 -3 -3 -6 10 -6 24 -1 30 -29 11 -48 -23 -23 -52 34 -40 75
2 7 31 1 31 -7z m-1418 -107 c-2 -68 -7 -94 -15 -91 -12 4 -13 145 -2 175 13
35 20 2 17 -84z m3041 88 c7 -10 -32 -57 -40 -48 -7 7 17 56 28 56 4 0 10 -3
12 -8z m-2223 -27 c17 -19 27 -22 41 -15 10 6 21 10 26 10 4 -1 -4 -8 -20 -16
-25 -14 -29 -13 -49 6 -13 11 -32 23 -44 26 -24 6 -79 -18 -87 -38 -3 -7 -6
-3 -6 9 -1 12 -9 24 -18 27 -10 3 -3 4 15 2 18 -1 35 1 38 6 3 4 22 8 43 8 27
0 44 -7 61 -25z m410 -10 c0 -9 -7 -18 -16 -22 -18 -7 -39 11 -30 26 11 17 46
13 46 -4z m81 -5 c13 0 11 -37 -2 -45 -6 -4 -8 -13 -6 -19 3 -7 1 -19 -4 -27
-8 -12 -10 -12 -18 1 -7 10 -5 20 5 31 18 20 18 38 -1 45 -8 4 -15 11 -15 16
0 6 7 7 16 4 9 -3 20 -6 25 -6z m1669 0 c13 -9 13 -10 0 -10 -8 0 -22 5 -30
10 -13 9 -13 10 0 10 8 0 22 -5 30 -10z m650 0 c0 -12 -28 -25 -36 -17 -9 9 6
27 22 27 8 0 14 -5 14 -10z m-2383 -37 c-9 -9 -20 -12 -28 -8 -9 6 -8 11 6 21
23 17 42 6 22 -13z m2292 -6 c-29 -19 -34 -29 -34 -61 0 -25 -6 -41 -17 -47
-22 -12 -34 7 -16 28 7 9 17 30 23 47 5 17 21 36 35 43 41 21 46 15 9 -10z
m-2371 -2 c1 -1 0 -9 -3 -16 -6 -17 -65 -25 -65 -9 0 29 44 45 68 25z m312
-15 c0 -19 -25 -34 -41 -24 -23 14 2 57 27 47 8 -3 14 -13 14 -23z m-76 4 c9
-8 16 -22 16 -30 0 -11 -7 -9 -30 8 -16 12 -30 25 -30 30 0 14 28 9 44 -8z
m-194 -23 c0 -11 -42 -43 -48 -37 -2 3 1 14 8 25 11 21 40 29 40 12z m320 -10
c0 -15 -29 -33 -45 -28 -8 4 -17 2 -20 -3 -8 -13 -55 -13 -55 0 0 6 13 10 29
10 16 0 34 7 41 15 13 16 50 21 50 6z m-880 -11 c-8 -5 -19 -10 -25 -10 -5 0
-3 5 5 10 8 5 20 10 25 10 6 0 3 -5 -5 -10z m605 -10 c3 -6 -3 -14 -15 -18
-20 -7 -20 -9 -6 -21 9 -8 16 -21 16 -30 0 -9 -9 -2 -21 18 -11 18 -18 40 -15
47 6 16 32 19 41 4z m286 -13 c-10 -9 -11 -8 -5 6 3 10 9 15 12 12 3 -3 0 -11
-7 -18z m-911 -3 c0 -2 -9 -4 -20 -4 -11 0 -20 4 -20 9 0 5 9 7 20 4 11 -3 20
-7 20 -9z m670 7 c0 -5 -7 -14 -15 -21 -12 -10 -15 -10 -15 2 0 8 3 18 7 21 9
10 23 9 23 -2z m57 -11 c-14 -11 -31 -20 -38 -20 -8 0 -6 7 6 20 10 11 27 20
38 20 18 0 17 -2 -6 -20z m1889 -5 c-19 -15 -46 -20 -46 -10 0 6 40 24 55 24
6 0 1 -6 -9 -14z m-2441 -15 c-3 -5 -13 -10 -21 -10 -8 0 -12 5 -9 10 3 6 13
10 21 10 8 0 12 -4 9 -10z m345 0 c0 -12 -28 -25 -36 -17 -9 9 6 27 22 27 8 0
14 -5 14 -10z m1460 1 c0 -5 -7 -14 -15 -21 -8 -7 -15 -10 -15 -7 0 3 -3 12
-6 21 -4 12 0 16 15 16 12 0 21 -4 21 -9z m-1402 -24 c4 -20 -21 -32 -45 -22
-16 7 -15 9 7 15 21 7 22 8 5 9 -17 1 -17 3 -5 11 20 13 34 7 38 -13z m1349
17 c-3 -3 -12 -4 -19 -1 -8 3 -5 6 6 6 11 1 17 -2 13 -5z m481 -1 c-10 -2 -28
-2 -40 0 -13 2 -5 4 17 4 22 1 32 -1 23 -4z m-1690 -33 c-8 -13 -16 -16 -22
-10 -6 6 -17 10 -25 10 -12 0 -11 -3 2 -18 24 -26 21 -44 -5 -40 -46 6 -25 72
26 80 31 6 37 0 24 -22z m87 4 c-18 -14 -18 -14 0 -14 10 0 15 -3 12 -7 -10
-9 -57 18 -57 32 0 7 12 10 32 7 29 -4 30 -6 13 -18z m85 22 c0 -11 -19 -15
-25 -6 -3 5 1 10 9 10 9 0 16 -2 16 -4z m-1180 -16 c0 -6 -60 -10 -159 -10
-96 0 -162 4 -166 10 -4 7 52 10 159 10 104 0 166 -4 166 -10z m1390 0 c0 -6
-40 -10 -101 -10 -64 0 -98 4 -94 10 3 6 48 10 101 10 56 0 94 -4 94 -10z
m1668 -5 c1 -5 -5 -9 -13 -9 -8 1 -189 2 -402 3 -229 1 -382 5 -374 10 20 13
785 9 789 -4z m-2253 -23 c-8 -8 -25 10 -19 20 4 6 9 5 15 -3 4 -7 6 -15 4
-17z m-35 0 c0 -15 -6 -18 -30 -14 -25 3 -28 7 -19 18 17 20 49 18 49 -4z
m286 3 c3 -8 3 -19 -1 -25 -10 -16 -35 7 -28 26 7 18 22 18 29 -1z m-339 -27
c11 -10 24 -18 29 -18 5 0 15 -13 22 -30 8 -16 18 -28 24 -27 11 2 61 -130 55
-147 -2 -6 -12 13 -22 43 -11 29 -21 47 -23 41 -3 -7 -12 -6 -28 5 -24 16 -24
15 -18 -11 6 -23 4 -26 -10 -21 -18 7 -21 -4 -6 -19 8 -8 6 -15 -5 -24 -21
-17 -19 -30 4 -30 11 0 23 -4 26 -10 3 -5 -3 -10 -14 -10 -10 0 -26 -2 -34 -6
-11 -4 -21 20 -42 103 -21 80 -34 114 -53 132 -25 23 -26 23 -200 16 -143 -6
-176 -5 -183 6 -7 11 -12 12 -29 2 -14 -10 -87 -13 -270 -13 -242 0 -250 1
-250 20 0 19 8 20 417 20 229 0 417 1 419 2 1 2 40 1 87 -2 62 -4 90 -10 104
-22z m418 15 c-3 -10 -10 -36 -14 -58 -5 -22 -12 -48 -16 -58 -5 -13 -4 -18 6
-17 31 5 59 -1 59 -11 0 -6 -6 -9 -13 -6 -24 9 -38 -9 -52 -69 -8 -32 -14 -62
-15 -65 0 -4 41 -10 90 -13 50 -4 90 -12 90 -17 0 -6 -110 -9 -281 -9 -213 1
-279 4 -276 13 2 8 36 13 99 15 l96 3 -1 67 c0 37 0 91 1 120 2 48 4 52 26 52
30 0 54 -49 37 -77 -9 -15 -10 -12 -11 18 0 28 -5 38 -20 42 -18 4 -20 0 -20
-35 0 -34 3 -39 18 -34 16 6 16 5 0 -8 -14 -10 -18 -28 -18 -80 0 -59 2 -66
20 -66 17 0 20 7 22 58 l2 57 3 -57 c6 -83 29 -79 35 6 3 35 11 72 17 82 12
18 12 18 6 -1 -4 -11 -9 -48 -12 -82 l-6 -63 35 0 c34 0 35 1 48 58 7 31 15
63 18 71 3 9 1 12 -6 7 -7 -4 -12 -2 -12 3 0 6 -7 11 -16 11 -8 0 -12 5 -9 10
4 6 10 8 14 5 5 -2 16 23 25 58 23 82 24 87 32 87 3 0 3 -8 -1 -17z m265 -5
c0 -7 16 -38 35 -68 43 -66 45 -83 6 -41 -16 17 -36 31 -44 31 -10 0 -13 7
-10 19 3 10 0 28 -6 40 -10 17 -23 21 -89 24 l-77 3 93 2 c68 1 92 -1 92 -10z
m1030 6 c0 -2 -8 -22 -17 -44 -19 -44 -32 -50 -40 -20 -3 11 -9 20 -13 20 -10
0 -31 -50 -25 -59 2 -5 -2 -17 -10 -27 -8 -10 -15 -14 -15 -8 0 5 6 16 13 23
10 10 9 11 -4 6 -20 -7 -24 -2 -33 42 -7 31 -7 32 36 36 l43 4 -47 1 c-36 2
-48 6 -48 17 0 13 14 15 80 14 44 -1 80 -3 80 -5z m110 -4 c0 -5 -22 -10 -50
-10 -27 0 -50 5 -50 10 0 6 23 10 50 10 28 0 50 -4 50 -10z m500 0 c14 -4 -90
-8 -232 -8 -142 0 -258 4 -258 9 0 11 456 10 490 -1z m90 -10 c0 -15 -7 -20
-25 -20 -29 0 -35 26 -7 33 30 8 32 7 32 -13z m-2242 -2 c6 -6 12 -15 12 -20
0 -6 -7 -5 -15 2 -8 7 -21 10 -29 7 -8 -3 -19 0 -25 7 -9 11 -5 14 16 14 16 0
34 -5 41 -10z m263 -21 l-23 -22 17 28 c10 15 20 25 23 22 3 -3 -5 -16 -17
-28z m1069 23 c0 -5 -2 -10 -4 -10 -3 0 -8 5 -11 10 -3 6 -1 10 4 10 6 0 11
-4 11 -10z m-1405 -26 c0 -12 -8 -20 -22 -22 -26 -4 -28 1 -12 29 13 24 34 20
34 -7z m225 -34 c0 -21 3 -47 6 -57 5 -15 4 -15 -5 -3 -6 8 -11 32 -11 54 0
32 -2 37 -15 26 -8 -6 -19 -9 -25 -5 -16 10 -3 23 25 23 22 0 25 -5 25 -38z
m197 24 c3 -8 1 -20 -6 -27 -14 -14 -47 15 -37 32 10 16 36 13 43 -5z m1283
-2 c0 -10 -6 -26 -13 -36 -12 -17 -14 -16 -31 9 -13 20 -21 24 -29 16 -6 -6
-18 -11 -26 -11 -11 0 -10 4 4 20 25 27 95 29 95 2z m48 -2 c-7 -11 -16 -20
-20 -20 -5 0 -8 9 -8 20 0 13 7 20 20 20 18 0 19 -2 8 -20z m405 -9 c141 -6
223 -13 230 -20 9 -9 4 -48 -19 -159 l-30 -147 -109 -12 c-148 -16 -189 -41
-164 -97 16 -34 4 -79 -19 -72 -9 2 -80 10 -157 16 -172 14 -203 18 -210 30
-6 10 55 311 80 397 22 72 35 80 129 75 28 -1 149 -6 269 -11z m-2983 -101 l0
-110 -134 0 -134 0 -16 88 c-27 145 -40 132 134 132 l150 0 0 -110z m196 94
c-20 -19 -20 -23 -1 -121 8 -43 15 -79 15 -80 0 -2 -43 -3 -95 -3 l-95 0 0
110 0 110 96 0 c87 0 94 -1 80 -16z m205 4 c0 -10 2 -10 6 0 4 11 63 18 63 7
0 -6 57 -305 64 -337 3 -14 -2 -18 -24 -18 l-28 0 -26 138 c-14 75 -30 151
-35 167 -18 59 -10 -3 19 -150 16 -82 27 -151 26 -153 -2 -2 -19 1 -37 5 -37
10 -31 -7 -69 203 -13 69 -25 120 -27 113 -2 -6 7 -76 21 -156 14 -79 26 -147
26 -150 0 -9 -52 -9 -67 1 -9 6 -63 284 -63 328 0 19 150 21 151 2z m200 -197
c21 -112 40 -206 43 -209 9 -9 7 5 -24 173 -48 255 -47 245 -17 245 31 0 37
-15 92 -263 40 -180 43 -212 19 -203 -8 3 -13 2 -10 -2 3 -5 -14 -9 -36 -10
-23 -1 -45 -5 -49 -10 -6 -6 15 -179 23 -187 11 -12 409 57 461 80 16 7 18 3
15 -26 l-3 -34 -110 -17 c-60 -9 -165 -25 -232 -34 -87 -12 -123 -21 -123 -31
0 -7 7 -13 15 -13 27 0 16 -29 -12 -32 -27 -3 -28 -6 -31 -64 -2 -34 1 -83 6
-110 l10 -49 1 63 c1 63 1 63 29 60 25 -3 27 0 30 40 3 34 7 42 23 42 10 0 19
4 19 9 0 5 -9 7 -20 4 -16 -4 -20 0 -20 20 0 27 -4 27 268 62 142 19 148 16
157 -67 9 -90 13 -98 42 -98 26 0 26 0 20 65 l-6 65 62 -6 c34 -3 86 -9 116
-14 40 -5 61 -4 80 7 25 14 25 14 -19 11 -35 -2 -46 1 -48 13 -3 15 8 16 88
11 62 -3 90 -1 90 6 0 7 -31 12 -82 14 l-83 3 -3 93 c-2 52 1 92 7 92 17 0 22
-33 15 -101 l-6 -67 76 -4 c42 -2 76 0 76 3 0 3 15 3 32 1 24 -4 28 -7 15 -11
-15 -6 -16 -9 -4 -25 13 -18 15 -17 27 18 12 36 7 119 -9 144 -4 7 -21 17 -37
22 l-29 8 32 1 c39 1 63 -28 63 -79 0 -19 6 -47 14 -61 7 -14 16 -38 20 -53 8
-32 26 -25 26 11 l0 26 119 -6 c115 -5 168 -18 156 -38 -4 -5 -3 -9 2 -9 4 0
6 52 5 115 -3 100 -2 115 12 115 14 0 16 -17 16 -115 l0 -115 36 0 37 0 -7
-61 c-3 -34 -6 -79 -6 -99 l0 -37 -117 5 c-65 2 -115 1 -112 -2 4 -4 69 -12
145 -17 337 -24 552 -82 570 -154 6 -26 -14 -68 -45 -93 -60 -48 -241 -111
-391 -136 -294 -48 -712 -48 -992 0 -185 31 -354 95 -397 150 -93 119 113 200
589 233 l115 8 -100 1 c-181 3 -429 -32 -542 -77 -27 -11 -79 -21 -114 -22
l-64 -3 -11 190 c-7 104 -19 221 -28 259 -21 95 -20 110 9 129 14 9 25 24 25
33 0 20 -28 53 -45 53 -8 0 -24 60 -44 163 -17 89 -34 172 -37 185 -6 22 -4
23 36 20 l44 -3 37 -204z m-340 1 c20 -119 19 -147 -1 -126 -10 10 -50 234
-50 282 0 45 24 47 28 3 1 -20 12 -92 23 -159z m3231 193 c12 -5 12 -15 2 -63
-7 -31 -16 -74 -19 -94 -5 -35 -9 -38 -38 -38 l-32 0 -28 -118 c-15 -64 -28
-124 -28 -132 -1 -8 -6 10 -12 40 -11 53 -12 342 -2 388 5 20 11 22 74 22 38
0 76 -2 83 -5z m345 -10 c2 -1 -4 -37 -13 -81 -8 -43 -19 -124 -24 -178 -6
-55 -13 -109 -16 -119 -4 -13 -2 -17 5 -13 12 8 43 -39 101 -155 45 -88 79
-143 86 -136 6 6 -69 178 -107 246 -17 29 -28 55 -26 57 9 9 66 -92 101 -179
33 -79 72 -225 63 -233 -2 -2 -14 15 -27 38 -13 23 -25 37 -28 30 -2 -7 8 -32
21 -57 30 -53 19 -59 -19 -10 -22 29 -25 39 -16 63 8 24 2 43 -40 132 -59 122
-112 199 -122 174 -3 -9 -6 -27 -6 -40 0 -24 -15 -30 -36 -16 -9 5 -8 26 2 82
18 92 13 122 -9 55 -27 -86 -18 -23 19 130 19 81 33 155 32 164 -2 9 -18 -41
-36 -110 -27 -107 -83 -259 -95 -259 -5 0 5 64 39 254 14 76 23 141 20 143 -5
5 -16 -47 -51 -232 -13 -66 -24 -111 -24 -101 -1 29 -14 11 -33 -47 l-16 -52
-2 50 c-1 28 -2 53 -1 58 1 4 15 75 32 158 16 83 28 154 25 156 -3 3 -8 -8
-11 -23 -11 -51 -52 -188 -69 -229 l-16 -40 6 68 6 67 -27 0 c-24 0 -26 3 -21
28 3 15 10 56 17 92 6 36 16 68 22 72 10 6 286 0 294 -7z m-4487 -233 l80
-232 -29 0 c-16 0 -34 6 -40 14 -12 14 -161 401 -161 417 0 9 62 41 68 35 1
-2 38 -107 82 -234z m14 161 c25 -79 116 -381 116 -389 0 -2 -9 -4 -19 -4 -16
0 -25 16 -45 84 -14 46 -48 146 -76 222 -27 76 -50 144 -50 151 0 7 11 13 24
13 21 0 27 -9 50 -77z m95 -45 c34 -104 101 -332 101 -345 0 -3 -14 -3 -32 -1
-31 3 -33 6 -56 83 -25 85 -110 352 -118 373 -4 8 5 12 29 12 l35 0 41 -122z
m69 70 c21 -57 116 -358 125 -396 5 -22 3 -23 -36 -20 l-41 3 -32 112 c-18 62
-50 167 -72 233 l-41 120 39 0 c37 0 39 -2 58 -52z m94 12 c14 -28 128 -408
128 -426 0 -2 -17 -4 -38 -4 l-37 0 -56 183 c-31 100 -66 206 -78 235 l-21 53
42 -3 c38 -3 45 -7 60 -38z m1247 -31 c7 -34 10 -63 7 -66 -2 -2 -10 22 -16
54 -7 32 -14 61 -17 66 -2 4 0 7 4 7 5 0 15 -27 22 -61z m1357 29 l29 -33 -35
30 c-19 17 -37 31 -39 33 -2 1 0 2 5 2 6 0 23 -15 40 -32z m-986 7 c19 -23 -1
-40 -29 -26 -22 12 -26 23 -14 34 11 12 30 8 43 -8z m1125 -62 c-43 -45 -46
-51 -41 -88 l6 -40 -25 30 c-14 17 -25 34 -25 38 0 28 121 140 128 118 2 -6
-17 -32 -43 -58z m123 51 c14 -9 22 -25 22 -42 l-1 -27 -24 30 c-26 32 -29 32
-40 -4 -6 -19 -4 -23 8 -18 9 3 18 -1 21 -9 4 -11 0 -15 -17 -12 -27 4 -35 40
-16 74 15 28 18 29 47 8z m72 -8 c0 -12 -5 -28 -10 -36 -8 -12 -10 -11 -10 7
0 12 -2 28 -5 36 -4 8 0 14 10 14 9 0 15 -9 15 -21z m1310 -17 c0 -29 -15 -40
-22 -17 -7 19 3 58 13 52 5 -3 9 -18 9 -35z m78 -73 c7 -54 10 -101 8 -103 -6
-7 -27 95 -33 162 -9 100 12 50 25 -59z m-2558 92 c0 -4 -12 -8 -27 -8 -19 0
-24 3 -15 8 17 11 42 11 42 0z m800 -3 c10 -13 9 -15 -8 -15 -15 0 -20 5 -16
15 4 8 7 15 9 15 1 0 8 -7 15 -15z m-646 -21 c3 -8 2 -12 -4 -9 -6 3 -10 10
-10 16 0 14 7 11 14 -7z m1695 -117 c-12 -56 -26 -106 -30 -111 -20 -22 -20 9
1 111 29 142 29 142 42 120 7 -14 4 -46 -13 -120z m-2070 49 c-44 -59 -64 -76
-34 -28 23 34 69 90 73 87 2 -2 -16 -28 -39 -59z m-92 17 c-3 -10 -5 -4 -5 12
0 17 2 24 5 18 2 -7 2 -21 0 -30z m1203 33 c0 -2 -7 -6 -15 -10 -8 -3 -15 -1
-15 4 0 6 7 10 15 10 8 0 15 -2 15 -4z m-146 -31 c-27 -20 -51 -20 -34 0 7 8
22 15 33 15 20 0 20 0 1 -15z m1703 -32 c-3 -10 -5 -2 -5 17 0 19 2 27 5 18 2
-10 2 -26 0 -35z m-4867 -55 c-7 -28 -8 -24 -8 27 0 46 2 54 8 33 4 -14 4 -41
0 -60z m2880 52 c-24 -34 -32 -38 -23 -12 8 24 24 42 35 42 5 0 0 -13 -12 -30z
m105 20 c3 -5 -1 -10 -10 -10 -9 0 -13 5 -10 10 3 6 8 10 10 10 2 0 7 -4 10
-10z m1954 -60 c0 -10 -2 -11 -6 -2 -2 6 -9 12 -15 12 -10 0 -8 -17 7 -52 11
-27 -17 -23 -44 6 l-22 24 28 40 28 40 12 -26 c7 -15 12 -34 12 -42z m-4692
-104 c29 -82 52 -150 51 -151 -2 -1 -14 -5 -28 -8 -25 -6 -27 -2 -83 145 -59
156 -61 172 -13 166 15 -2 31 -36 73 -152z m1670 132 c-3 -8 -6 -5 -6 6 -1 11
2 17 5 13 3 -3 4 -12 1 -19z m180 -25 c-3 -10 -5 -2 -5 17 0 19 2 27 5 18 2
-10 2 -26 0 -35z m-205 12 c2 3 5 -2 5 -9 0 -18 -26 -7 -48 20 -13 17 -13 17
12 1 14 -10 28 -15 31 -12z m-1799 -71 c-9 -38 -19 -61 -21 -52 -4 20 27 133
34 125 3 -2 -3 -35 -13 -73z m3377 24 c0 -14 -18 -9 -24 8 -11 28 -6 39 9 20
8 -11 15 -23 15 -28z m35 31 c11 -17 0 -20 -21 -4 -17 13 -17 14 -2 15 9 0 20
-5 23 -11z m1009 -5 c25 -10 19 -24 -11 -24 -34 0 -58 -14 -49 -28 5 -9 -6
-55 -44 -172 l-8 -25 -1 25 c-1 14 10 65 23 114 13 50 22 96 19 103 -5 14 41
18 71 7z m56 -15 c0 -5 -7 -9 -15 -9 -9 0 -12 6 -9 15 6 15 24 11 24 -6z
m-3540 -70 l0 -72 -67 6 c-38 4 -89 7 -115 7 -52 0 -47 -6 -74 103 l-6 27 131
0 131 0 0 -71z m214 59 c3 -7 7 -28 10 -45 l6 -33 -60 0 c-64 0 -66 -1 -50
-31 10 -18 7 -19 -45 -19 l-55 0 0 70 0 70 95 0 c68 0 97 -4 99 -12z m3805
-78 c-5 -46 -14 -100 -19 -119 -8 -34 -8 -33 -9 20 -1 52 15 164 26 182 12 19
12 -4 2 -83z m-1900 66 c10 -12 7 -15 -18 -14 -30 1 -38 8 -24 21 11 11 30 8
42 -7z m236 4 c3 -5 1 -10 -4 -10 -6 0 -11 5 -11 10 0 6 2 10 4 10 3 0 8 -4
11 -10z m1488 -39 c9 -27 17 -58 17 -70 0 -25 -25 -28 -35 -3 -10 20 -14 122
-5 122 3 0 13 -22 23 -49z m-1343 4 c0 -8 -10 -17 -22 -19 -69 -13 -232 -36
-260 -36 -19 0 -43 -7 -55 -15 -19 -13 -29 -14 -73 -3 -109 28 -45 58 155 74
222 17 255 17 255 -1z m-1381 -17 c18 -6 21 -12 13 -20 -8 -8 -21 -9 -49 0
-21 6 -100 13 -176 15 -89 3 -143 9 -150 16 -9 10 28 11 163 5 96 -4 186 -11
199 -16z m2398 0 c-3 -8 -6 -5 -6 6 -1 11 2 17 5 13 3 -3 4 -12 1 -19z m-2257
3 c0 -36 -21 -59 -66 -70 l-47 -12 7 -92 c20 -284 13 -490 -9 -269 -5 56 -11
72 -24 73 -14 1 -14 2 2 6 21 5 21 4 -2 176 l-17 137 23 0 c28 0 40 24 23 45
-11 13 -4 15 49 15 33 0 61 -4 61 -9z m451 -34 c-16 -16 -20 -5 -8 23 9 22 11
23 14 6 3 -10 0 -23 -6 -29z m-2703 -352 c-1 -145 -2 -143 -27 35 -12 87 -14
272 -4 321 11 52 31 -186 31 -356z m4445 318 c2 -29 0 -53 -4 -53 -5 0 -9 28
-8 63 1 71 5 67 12 -10z m-4338 -53 c-18 -110 -16 -144 4 -56 6 29 18 62 26
72 8 12 4 -12 -10 -59 -14 -43 -25 -85 -26 -95 0 -14 -2 -14 -10 3 -7 16 -8
13 -4 -13 3 -20 1 -31 -5 -27 -6 4 -10 -10 -11 -32 0 -21 -7 -54 -14 -73 l-13
-35 -2 55 c-2 45 -4 50 -9 25 -4 -18 -7 9 -8 70 -1 58 -8 127 -18 164 -21 80
-13 89 14 16 15 -39 21 -80 21 -138 1 -81 1 -82 14 -44 13 34 25 98 41 202 8
53 16 78 22 71 3 -3 -2 -51 -12 -106z m4792 52 c7 -26 15 -63 18 -82 4 -29 4
-31 -4 -10 -16 45 -41 132 -41 143 0 22 15 -6 27 -51z m-2946 28 c38 0 49 -4
49 -16 0 -9 9 -27 20 -41 32 -40 26 -53 -23 -53 -24 0 -91 -3 -149 -6 -86 -6
-105 -4 -105 7 0 8 -3 35 -7 61 -7 45 -6 47 21 51 15 3 55 3 87 1 32 -2 81 -4
107 -4z m2560 -37 c15 4 19 0 19 -20 0 -21 -4 -24 -27 -21 -31 3 -39 24 -27
66 l8 27 4 -28 c3 -23 8 -28 23 -24z m-3194 26 c186 -16 178 -31 -12 -23 -115
5 -164 10 -175 20 -12 12 -9 14 23 14 20 0 94 -5 164 -11z m710 -21 c-3 -7 -5
-2 -5 12 0 14 2 19 5 13 2 -7 2 -19 0 -25z m2226 17 c-1 -5 -58 -16 -125 -23
-68 -8 -137 -21 -155 -29 -35 -16 -64 -15 -70 4 -7 21 36 34 150 48 127 15
203 15 200 0z m-2183 -33 c0 -7 -4 -10 -10 -7 -5 3 -10 16 -10 28 0 18 2 19
10 7 5 -8 10 -21 10 -28z m790 28 c145 -10 180 -16 180 -28 0 -8 -779 -6 -787
2 -27 26 359 43 607 26z m-1291 -35 c16 -16 8 -45 -13 -45 -9 0 -20 9 -26 19
-5 11 -18 27 -27 36 -16 16 -15 17 18 10 19 -4 40 -13 48 -20z m-491 5 c42 0
52 -3 52 -16 0 -15 -10 -16 -82 -11 -46 4 -127 7 -180 7 -85 0 -98 2 -98 17 0
14 13 15 128 10 70 -4 151 -7 180 -7z m3222 -1 c0 -19 -21 -50 -31 -44 -5 4
-9 17 -9 31 0 17 5 24 20 24 11 0 20 -5 20 -11z m-2806 -19 c4 -5 -70 -7 -165
-5 -123 3 -175 7 -178 16 -3 9 36 10 165 4 93 -4 173 -11 178 -15z m726 -130
c0 -151 -3 -164 -36 -142 -7 4 -14 57 -18 127 -4 66 -9 128 -12 137 -5 16 10
24 49 27 15 1 17 -12 17 -149z m910 93 c0 -32 -7 -148 -15 -258 -8 -110 -15
-203 -15 -207 0 -5 -5 -8 -10 -8 -12 0 -12 10 1 265 12 215 17 265 30 265 5 0
9 -26 9 -57z m1085 25 c-11 -56 -16 -68 -27 -68 -14 0 -1 82 15 92 18 12 19
10 12 -24z m-1251 10 c-5 -7 4 -9 24 -6 35 5 47 -11 28 -37 -17 -24 -121 -34
-344 -35 -185 0 -362 14 -394 31 -24 13 -25 52 0 45 70 -22 447 -32 602 -17
36 3 -59 7 -210 7 -151 1 -295 6 -320 11 -33 7 44 10 287 10 227 1 331 -2 327
-9z m1212 -10 c-3 -13 -6 -31 -6 -40 0 -17 -29 -52 -37 -45 -7 8 29 107 39
107 6 0 8 -10 4 -22z m-106 4 c0 -5 -7 -29 -16 -55 -15 -46 -17 -47 -56 -47
l-40 0 7 38 c9 48 20 60 58 65 18 2 35 5 40 5 4 1 7 -2 7 -6z m67 -6 c-3 -8
-11 -32 -18 -55 -7 -23 -16 -41 -21 -41 -4 0 -8 -16 -8 -35 0 -29 4 -35 21
-35 11 0 18 -4 15 -9 -6 -10 -86 -20 -86 -11 0 6 39 159 46 183 3 10 15 17 31
17 17 0 24 -4 20 -14z m-2057 -11 c0 -8 -4 -15 -10 -15 -5 0 -10 7 -10 15 0 8
5 15 10 15 6 0 10 -7 10 -15z m-1164 -8 c4 -3 4 -13 0 -22 -4 -13 -18 -15 -63
-13 -52 3 -58 5 -61 27 -4 23 -2 23 57 19 33 -2 63 -7 67 -11z m248 -24 c3
-21 9 -48 12 -60 5 -18 1 -22 -23 -26 l-28 -4 33 -8 c25 -6 32 -13 32 -31 0
-19 -7 -24 -35 -30 -20 -3 -39 -4 -42 0 -3 3 -1 36 6 74 8 48 9 76 2 95 -10
25 -8 27 13 27 19 0 25 -7 30 -37z m334 -14 l3 -46 -38 -7 c-21 -3 -84 -6
-139 -6 l-102 0 -11 44 c-6 25 -11 50 -11 56 0 7 47 10 148 8 l147 -3 3 -46z
m3054 24 c2 -20 9 -29 26 -31 12 -2 22 -8 22 -13 0 -10 -154 -12 -212 -3 -40
7 -52 24 -18 24 15 0 20 7 20 25 0 25 1 25 79 25 79 0 80 0 83 -27z m-3468 11
c9 -3 16 -15 16 -25 0 -16 -8 -19 -47 -19 -67 0 -93 9 -93 31 0 16 8 19 54 19
30 0 61 -3 70 -6z m2851 -84 l-14 -85 5 79 c5 73 11 103 19 94 2 -2 -3 -42
-10 -88z m-1680 -62 l0 -126 23 9 c36 14 72 11 72 -6 0 -11 -13 -15 -54 -15
-66 0 -66 0 -66 158 0 87 3 113 13 109 9 -3 12 -38 12 -129z m805 42 c0 -82
-2 -90 -19 -90 -16 0 -20 10 -26 72 -7 67 -6 72 16 89 13 10 25 19 27 19 1 0
2 -40 2 -90z m840 -46 c-23 -281 -29 -336 -34 -342 -16 -16 -17 21 -1 170 17
171 36 310 42 304 2 -1 -2 -61 -7 -132z m-2362 21 c0 -22 -3 -19 -9 15 -10 60
-9 108 2 55 4 -22 8 -53 7 -70z m550 76 c6 -42 -7 -69 -38 -80 -52 -17 -382
-63 -392 -53 -10 10 -34 130 -27 136 10 10 211 23 329 22 123 -1 125 -1 128
-25z m2702 -16 c0 -5 -5 -3 -10 5 -5 8 -10 20 -10 25 0 6 5 3 10 -5 5 -8 10
-19 10 -25z m-4660 -102 c-65 -126 -70 -139 -37 -94 14 18 35 40 47 48 11 8
-7 -22 -40 -66 -65 -86 -81 -101 -53 -48 9 17 16 35 15 39 -3 11 26 88 65 171
26 56 39 75 47 67 8 -8 -5 -41 -44 -117z m3589 102 c84 -8 155 -16 158 -18 2
-3 1 -16 -2 -30 l-7 -26 -26 19 c-22 16 -66 23 -242 40 -199 19 -289 24 -265
15 6 -2 108 -13 228 -25 231 -22 260 -28 271 -55 10 -28 7 -70 -8 -90 -12 -16
-25 -19 -87 -17 -84 3 -521 50 -544 58 -8 3 -17 15 -20 25 -10 31 5 98 23 108
10 5 61 9 116 10 54 0 101 3 104 6 5 5 48 2 301 -20z m978 10 c48 -8 103 -49
87 -65 -6 -6 -44 -17 -85 -26 -58 -12 -115 -15 -269 -11 -187 5 -261 15 -276
39 -5 8 0 9 17 4 43 -12 392 -18 449 -8 44 8 25 9 -90 5 -142 -5 -356 8 -394
23 -13 5 -17 4 -12 -4 3 -6 1 -14 -5 -17 -7 -5 -10 0 -7 11 5 27 48 44 127 51
85 7 132 -8 56 -17 l-50 -7 51 -1 c28 -1 69 -9 90 -18 28 -12 54 -14 101 -9
34 4 65 11 68 16 4 5 18 9 32 9 17 0 27 7 30 20 4 13 11 19 22 16 9 -2 35 -7
58 -11z m-3597 -60 c-8 -75 -18 -78 -22 -6 -2 50 0 61 13 61 12 0 14 -9 9 -55z
m1559 -17 c-1 -40 -4 -62 -6 -48 -2 14 -8 46 -12 73 -7 37 -5 47 5 47 11 0 14
-17 13 -72z m241 2 c0 -40 -4 -70 -10 -70 -6 0 -10 30 -10 70 0 40 4 70 10 70
6 0 10 -30 10 -70z m1645 50 c-3 -5 -40 -10 -81 -10 -43 0 -74 4 -74 10 0 6
34 10 81 10 51 0 78 -4 74 -10z m-522 -45 c-3 -34 -18 -50 -56 -59 l-28 -7 7
48 c9 62 8 62 46 54 29 -6 33 -11 31 -36z m-2515 -20 c-2 -1 -66 -6 -144 -10
-128 -6 -142 -5 -148 11 -3 9 -5 18 -4 19 2 2 68 7 148 12 136 8 145 7 148
-10 2 -10 2 -20 0 -22z m-740 -9 c7 -21 11 -40 10 -41 -2 -1 -17 -5 -35 -8
-28 -6 -32 -3 -42 25 -20 56 -15 70 22 66 27 -3 34 -9 45 -42z m139 38 c17 -5
23 -18 32 -68 19 -109 29 -99 -126 -120 -76 -9 -174 -24 -218 -31 -86 -15
-104 -10 -85 25 16 30 75 54 199 81 62 14 105 28 108 37 3 7 1 29 -5 48 l-10
34 41 0 c23 0 52 -3 64 -6z m-442 -85 l27 -81 -26 -26 c-33 -34 -40 -27 -71
78 -32 108 -32 110 9 110 34 0 35 -1 61 -81z m48 21 c20 -71 21 -93 5 -88 -11
4 -56 110 -57 136 -1 6 7 12 17 12 14 0 23 -14 35 -60z m77 9 c10 -43 10 -53
-1 -60 -24 -15 -42 -5 -54 31 -29 85 -30 80 8 80 34 0 35 -2 47 -51z m90 10
c13 -48 5 -62 -35 -57 -23 2 -30 10 -41 48 -8 25 -14 46 -14 48 0 1 18 2 40 2
38 0 40 -2 50 -41z m-496 -60 c-37 -74 -74 -132 -81 -126 -2 3 14 36 36 73 23
37 41 73 41 79 0 12 22 37 28 31 2 -2 -9 -28 -24 -57z m3975 -61 c-1 -68 -4
-111 -6 -95 -8 48 -21 29 -25 -38 -4 -61 -11 -85 -23 -73 -5 5 -2 27 25 203 6
39 13 81 14 95 4 29 5 30 11 30 3 0 4 -55 4 -122z m56 73 c-3 -20 -8 -44 -11
-53 -3 -12 0 -18 10 -18 33 0 45 13 52 57 6 42 8 44 33 38 14 -4 27 -7 27 -8
3 -3 -17 -142 -21 -145 -1 -2 -26 0 -54 4 -41 5 -51 10 -51 26 0 11 -4 27 -9
36 -5 10 -7 38 -4 64 4 35 9 45 20 41 11 -4 13 -15 8 -42z m532 27 c-3 -8 -6
-5 -6 6 -1 11 2 17 5 13 3 -3 4 -12 1 -19z m71 8 c26 -14 102 -86 90 -86 -3 0
-34 23 -68 50 -64 51 -70 61 -22 36z m-3299 0 c-2 -2 -87 -13 -189 -25 -102
-12 -200 -23 -217 -25 -23 -3 -33 -1 -33 9 0 14 44 22 185 35 89 8 261 12 254
6z m2398 -18 c-3 -8 -6 -5 -6 6 -1 11 2 17 5 13 3 -3 4 -12 1 -19z m816 -30
c4 -29 9 -114 12 -188 8 -172 -9 -155 -24 25 -6 72 -14 149 -17 173 -4 32 -2
42 9 42 10 0 16 -17 20 -52z m-605 30 c-5 -13 -45 -24 -140 -37 -87 -12 -76
13 15 32 93 19 130 21 125 5z m550 -34 c1 -21 10 -91 18 -154 23 -174 26 -206
17 -195 -12 15 -313 20 -313 6 0 -7 42 -11 133 -11 72 0 149 -3 170 -6 29 -5
37 -3 37 9 0 8 7 18 16 21 23 9 142 -12 190 -33 96 -43 74 -62 -189 -160 -181
-68 -243 -83 -537 -132 -230 -38 -424 -76 -497 -98 -24 -7 -57 -3 -149 20 -64
16 -119 29 -120 29 -2 0 -4 30 -3 68 l0 67 47 30 c29 18 54 45 66 69 17 36 18
40 3 72 -28 58 -161 109 -353 137 l-89 13 4 50 c1 27 4 50 5 51 4 5 293 -19
386 -32 58 -8 137 -17 175 -20 39 -3 87 -8 108 -11 l37 -6 0 -53 c0 -40 4 -56
17 -63 18 -11 17 -11 -150 -33 -48 -6 -87 -13 -85 -15 2 -2 57 2 122 8 87 9
122 9 135 1 14 -9 35 -7 92 8 44 11 86 17 106 13 26 -5 33 -3 33 9 0 9 -3 18
-8 21 -4 2 -52 -6 -107 -20 -54 -13 -100 -22 -101 -21 -2 1 0 37 3 80 5 65 9
77 22 73 9 -2 50 -7 92 -11 l75 -6 -4 -30 c-3 -23 -1 -29 15 -29 10 0 24 5 31
12 9 9 12 8 12 -6 0 -10 6 -16 13 -13 6 2 10 14 9 27 -3 21 -2 22 12 11 14
-12 15 -2 11 91 -4 115 0 100 11 -37 4 -49 9 -82 11 -72 3 12 14 17 39 17 36
0 39 -5 28 -59 -6 -29 -9 -31 -53 -33 l-46 -1 41 -4 c37 -4 41 -6 36 -29 -4
-23 -2 -24 42 -24 36 0 46 4 46 16 0 10 -6 14 -14 11 -12 -5 -13 -1 -5 23 9
25 19 31 77 45 37 9 72 17 77 18 29 5 202 -17 214 -27 12 -9 13 -7 8 14 -3 14
-11 52 -17 86 l-12 60 -90 12 c-50 6 -93 13 -96 16 -15 16 15 17 88 4 61 -11
80 -12 80 -2 0 6 -20 14 -45 18 -25 3 -65 9 -90 12 -45 6 -60 26 -30 38 17 6
153 -9 163 -18 3 -3 -24 -4 -59 -1 -67 5 -45 -7 33 -18 l38 -6 -7 76 c-5 63
-4 75 8 71 8 -3 15 -21 17 -44z m-3124 20 c3 -9 6 -33 6 -55 0 -32 -4 -41 -22
-48 -43 -16 -412 -71 -420 -63 -8 8 -31 123 -25 128 3 2 398 51 428 53 16 0
29 -5 33 -15z m2802 -11 c-3 -16 -10 -75 -16 -133 -6 -58 -18 -136 -26 -175
-8 -38 -14 -73 -14 -77 0 -5 -5 -8 -11 -8 -7 0 -9 12 -5 33 3 17 10 70 16 117
18 148 42 270 52 270 5 0 7 -12 4 -27z m67 -35 c-2 -35 -6 -83 -9 -108 -6 -42
-7 -43 -16 -20 -13 34 1 190 16 190 9 0 11 -19 9 -62z m43 5 c-3 -32 -8 -102
-12 -155 -3 -59 -11 -101 -18 -108 -7 -5 -34 -14 -60 -19 -44 -8 -46 -7 -46
15 0 13 5 24 12 24 6 0 28 7 48 16 42 19 36 -2 56 212 4 39 11 72 16 72 6 0 8
-23 4 -57z m-1396 27 c0 -15 -7 -20 -24 -20 -14 0 -28 5 -31 10 -10 16 4 30
31 30 17 0 24 -5 24 -20z m264 -20 c225 -28 461 -48 491 -42 22 4 25 1 25 -27
0 -18 -5 -31 -12 -31 -7 0 -168 16 -358 35 -190 19 -346 35 -347 35 -6 0 -2
47 4 54 4 3 13 4 21 1 8 -3 87 -14 176 -25z m-994 10 c0 -5 -11 -10 -25 -10
-14 0 -25 5 -25 10 0 6 11 10 25 10 14 0 25 -4 25 -10z m-2323 -32 c-3 -8 -6
-5 -6 6 -1 11 2 17 5 13 3 -3 4 -12 1 -19z m4081 -3 c3 -10 0 -15 -7 -11 -7 5
-11 -2 -11 -17 0 -20 -6 -25 -37 -31 -21 -3 -57 -6 -80 -6 -41 0 -43 1 -43 30
0 26 4 30 38 35 20 4 55 10 77 15 50 10 59 8 63 -15z m-1885 -2 c-7 -2 -21 -2
-30 0 -10 3 -4 5 12 5 17 0 24 -2 18 -5z m2650 0 c-7 -2 -19 -2 -25 0 -7 3 -2
5 12 5 14 0 19 -2 13 -5z m-4826 -45 c-3 -8 -6 -5 -6 6 -1 11 2 17 5 13 3 -3
4 -12 1 -19z m203 14 c0 -4 -16 -14 -36 -21 -28 -10 -33 -15 -23 -23 11 -8 10
-8 -4 -4 -10 3 -24 6 -30 6 -12 1 71 49 86 50 4 0 7 -4 7 -8z m4609 -8 c10 -9
-35 -3 -49 6 -11 8 -7 9 15 4 17 -4 32 -8 34 -10z m-1509 -14 c148 -14 157
-16 163 -41 6 -21 4 -22 -61 -16 -37 4 -120 9 -184 13 l-118 7 0 30 c0 29 1
29 43 23 23 -3 94 -10 157 -16z m-2415 1 c-31 -13 -474 -75 -482 -68 -3 4 5
15 18 26 15 12 28 16 34 10 14 -13 64 -10 220 16 144 23 248 31 210 16z m-626
-71 c0 -23 -15 7 -22 45 l-6 30 14 -30 c8 -16 14 -37 14 -45z m1369 18 c-2
-22 -9 -34 -20 -36 -15 -3 -18 4 -18 32 0 30 4 36 21 36 17 0 20 -5 17 -32z
m2055 11 c122 -12 127 -13 121 -33 -4 -12 -8 -23 -9 -24 -5 -6 -269 20 -276
27 -4 3 -10 17 -14 30 -7 22 -5 24 22 18 16 -3 86 -11 156 -18z m-3588 -9 c-3
-5 -11 -10 -16 -10 -6 0 -7 5 -4 10 3 6 11 10 16 10 6 0 7 -4 4 -10z m4818
-43 c-2 -4 -13 3 -23 15 -10 13 -16 26 -13 31 2 4 13 -3 23 -15 10 -13 16 -26
13 -31z m-3413 -7 c0 -47 -1 -49 -23 -41 -15 6 -78 -3 -206 -31 -100 -22 -184
-38 -186 -36 -1 2 -5 21 -8 43 l-7 41 188 36 c103 20 199 37 215 37 26 1 27
-1 27 -49z m2483 43 c62 -5 67 -8 67 -29 0 -22 -4 -24 -44 -24 -24 0 -64 3
-90 6 -40 6 -46 10 -46 30 0 27 4 28 113 17z m257 -25 c0 -17 -4 -19 -32 -13
-41 9 -48 13 -48 28 0 9 13 11 40 9 32 -3 40 -8 40 -24z m-2700 -49 c0 -44 -4
-68 -10 -64 -18 11 -12 135 7 135 2 0 3 -32 3 -71z m-1117 11 c3 -13 0 -20 -9
-20 -8 0 -14 9 -14 20 0 11 4 20 9 20 5 0 11 -9 14 -20z m3704 -2 c-3 -8 -6
-5 -6 6 -1 11 2 17 5 13 3 -3 4 -12 1 -19z m99 2 c14 0 22 -4 19 -10 -3 -5
-22 -10 -41 -10 -25 0 -34 4 -34 16 0 11 5 14 16 10 9 -3 27 -6 40 -6z m124 0
c13 -9 13 -11 0 -20 -24 -16 -40 -12 -40 10 0 22 16 26 40 10z m282 -34 c4 -6
8 -19 8 -29 0 -17 -6 -18 -47 -13 -27 3 -74 8 -105 12 -53 6 -58 8 -58 31 l0
25 98 -7 c53 -4 100 -13 104 -19z m-3150 -18 c9 -7 18 -31 20 -53 l3 -40 -115
-6 c-63 -4 -161 -7 -217 -8 -96 -1 -103 0 -103 19 0 12 9 22 23 25 131 31 327
73 348 74 14 0 32 -5 41 -11z m58 -76 c0 -21 -2 -24 -10 -12 -13 20 -13 53 0
45 6 -3 10 -18 10 -33z m-1190 -26 c0 -3 -4 -8 -10 -11 -5 -3 -10 -1 -10 4 0
6 5 11 10 11 6 0 10 -2 10 -4z m617 -31 c3 -9 4 -17 2 -19 -9 -7 -178 17 -173
25 3 5 41 9 85 9 63 0 81 -3 86 -15z m2413 -244 c0 -53 -10 -61 -75 -60 -37 0
-127 45 -105 52 8 3 49 16 90 30 41 14 78 25 83 26 4 1 7 -21 7 -48z m-1315
-25 c44 -8 68 -14 53 -15 -15 -1 -56 -13 -91 -27 l-63 -26 -54 20 c-30 10 -63
22 -72 27 -10 4 -18 3 -18 -3 0 -5 25 -20 55 -33 l55 -24 0 -57 c0 -43 5 -63
19 -77 18 -18 18 -19 -9 -39 -20 -15 -30 -34 -36 -69 l-8 -48 -7 50 c-4 29 -5
11 -2 -42 4 -92 4 -93 -19 -93 -53 1 -53 1 -56 268 l-4 249 89 -24 c48 -13
124 -30 168 -37z m1138 -23 l69 -27 -64 -18 c-85 -24 -95 -23 -135 12 -41 37
-51 37 -63 4 -18 -45 -13 -74 13 -74 25 0 181 39 277 69 36 12 68 21 73 21 4
0 7 -54 7 -120 0 -66 -3 -120 -8 -120 -4 0 -81 -9 -172 -21 -151 -19 -191 -21
-465 -13 -165 4 -325 8 -356 8 l-56 1 9 40 c19 84 11 81 245 88 171 5 375 25
388 39 2 2 -12 20 -30 41 l-33 38 -124 -11 c-67 -6 -196 -10 -285 -8 -123 2
-165 0 -175 -10 -10 -10 -14 -76 -16 -268 l-3 -256 -52 7 c-58 8 -67 12 -67
26 0 6 18 8 48 4 56 -7 38 9 -22 19 l-39 7 5 255 c5 228 4 255 -11 265 -12 7
-1 9 39 5 144 -15 495 -18 650 -7 135 10 253 23 280 30 2 0 35 -11 73 -26z
m-1125 -91 l82 -16 0 -73 0 -72 -32 6 c-53 10 -107 31 -139 53 -26 19 -29 27
-29 77 0 48 2 54 18 48 9 -4 54 -14 100 -23z"/>
<path d="M4349 4880 c-32 -9 -89 -58 -89 -76 0 -17 24 -24 80 -24 61 0 77 17
64 67 -10 41 -17 45 -55 33z"/>
<path d="M4147 2793 c-15 -15 -5 -41 28 -73 33 -32 36 -33 52 -17 16 16 16 18
-4 39 -11 13 -23 31 -26 41 -6 17 -37 23 -50 10z"/>
<path d="M2798 1719 c6 -7 12 -24 12 -37 0 -35 22 -102 31 -96 4 2 4 17 -1 32
-4 15 -11 42 -14 61 l-6 34 105 -5 c58 -3 102 -1 98 3 -4 4 -60 10 -123 14
-95 6 -113 5 -102 -6z"/>
<path d="M2607 1663 c-10 -10 -8 -43 2 -43 9 0 21 24 21 41 0 11 -14 12 -23 2z"/>
<path d="M2535 1580 c3 -5 0 -10 -7 -10 -11 0 -11 -2 0 -9 7 -4 16 -21 20 -36
5 -16 14 -31 21 -33 10 -3 11 0 1 18 -8 14 -8 20 -1 16 12 -8 26 37 16 53 -3
6 -17 11 -31 11 -14 0 -22 -4 -19 -10z"/>
<path d="M2855 1510 c10 -32 13 -36 25 -24 7 7 3 17 -11 30 -22 19 -22 19 -14
-6z"/>
<path d="M2925 1443 c1 -16 18 -51 38 -79 20 -28 37 -57 37 -63 0 -6 -25 9
-55 34 -33 26 -66 45 -80 45 -32 0 -31 -4 5 -50 28 -36 38 -60 24 -60 -4 0
-33 25 -66 55 -32 30 -63 55 -68 55 -6 0 -7 -20 -4 -44 12 -86 -21 -98 -47
-18 -6 20 -15 41 -19 46 -5 4 -25 -15 -45 -43 -20 -28 -41 -51 -46 -51 -14 0
-11 27 6 60 24 46 -6 39 -49 -12 -20 -23 -39 -38 -43 -35 -6 7 1 25 38 87 17
29 11 25 -35 -22 -93 -97 -96 -67 -4 43 40 47 54 86 21 57 -11 -9 -48 -18 -95
-22 -201 -16 -334 -89 -255 -140 160 -106 928 -103 1059 3 48 40 -16 96 -144
126 -35 8 -80 15 -100 15 -24 0 -44 7 -56 20 -19 20 -19 20 -17 -7z m78 -30
c-7 -2 -19 -2 -25 0 -7 3 -2 5 12 5 14 0 19 -2 13 -5z m-618 -14 c-100 -23
-144 -63 -96 -89 78 -41 361 -67 569 -51 165 13 201 19 180 32 -9 6 -6 9 10 9
14 0 21 -4 17 -10 -8 -13 38 -3 78 17 41 21 35 50 -15 74 -35 16 -37 19 -13
14 52 -11 110 -48 113 -73 5 -31 -55 -56 -184 -79 -127 -22 -521 -25 -634 -5
-166 30 -231 59 -216 97 10 26 143 74 206 73 16 0 10 -3 -15 -9z m682 5 c-3
-3 -12 -4 -19 -1 -8 3 -5 6 6 6 11 1 17 -2 13 -5z"/>
<path d="M63 1920 c0 -41 2 -58 4 -37 2 20 2 54 0 75 -2 20 -4 3 -4 -38z"/>
<path d="M73 1805 c0 -22 2 -30 4 -17 2 12 2 30 0 40 -3 9 -5 -1 -4 -23z"/>
<path d="M4788 1863 c7 -3 16 -2 19 1 4 3 -2 6 -13 5 -11 0 -14 -3 -6 -6z"/>
<path d="M4253 1423 c15 -2 39 -2 55 0 15 2 2 4 -28 4 -30 0 -43 -2 -27 -4z"/>
<path d="M4240 1291 c-14 -2 63 -17 170 -32 206 -30 280 -34 120 -5 -167 29
-264 42 -290 37z"/>
<path d="M5030 4749 c0 -5 5 -7 10 -4 6 3 10 8 10 11 0 2 -4 4 -10 4 -5 0 -10
-5 -10 -11z"/>
<path d="M5058 4492 c-7 -10 -25 -22 -40 -25 -26 -7 -45 -38 -34 -56 9 -14
103 -42 120 -35 11 4 16 19 16 51 0 74 -32 107 -62 65z"/>
<path d="M3598 4203 c17 -2 47 -2 65 0 17 2 3 4 -33 4 -36 0 -50 -2 -32 -4z"/>
<path d="M4431 3867 c38 -30 69 -46 74 -38 6 10 -44 41 -66 41 -7 0 -10 -1 -8
-3z"/>
<path d="M3502 3795 c0 -16 2 -22 5 -12 2 9 2 23 0 30 -3 6 -5 -1 -5 -18z"/>
<path d="M3524 3655 c0 -88 2 -123 3 -77 2 46 2 118 0 160 -1 42 -3 5 -3 -83z"/>
<path d="M3350 3788 c0 -7 5 -20 10 -28 8 -12 10 -11 10 7 0 12 -4 25 -10 28
-5 3 -10 0 -10 -7z"/>
<path d="M3472 3720 c0 -19 2 -27 5 -17 2 9 2 25 0 35 -3 9 -5 1 -5 -18z"/>
<path d="M3065 3630 c-3 -6 1 -7 9 -4 18 7 21 14 7 14 -6 0 -13 -4 -16 -10z"/>
<path d="M3343 3600 c0 -25 2 -35 4 -22 2 12 2 32 0 45 -2 12 -4 2 -4 -23z"/>
<path d="M3473 3590 c0 -25 2 -35 4 -22 2 12 2 32 0 45 -2 12 -4 2 -4 -23z"/>
<path d="M2421 3473 c0 -4 4 -17 9 -28 8 -19 9 -19 9 2 1 12 -3 25 -9 28 -5 3
-10 3 -9 -2z"/>
<path d="M3512 3420 c0 -14 2 -19 5 -12 2 6 2 18 0 25 -3 6 -5 1 -5 -13z"/>
<path d="M2909 3378 c-1 -7 -2 -107 -3 -223 -1 -115 -5 -222 -10 -237 -7 -23
-5 -28 8 -28 14 0 16 27 16 250 0 138 -2 250 -5 250 -3 0 -6 -6 -6 -12z"/>
<path d="M2657 3172 c-6 -58 -13 -81 -37 -114 -35 -47 -40 -114 -15 -175 19
-44 19 -42 -5 -36 -12 3 -20 0 -20 -6 0 -7 -5 -9 -12 -4 -8 4 -6 -3 3 -17 9
-14 31 -49 49 -79 31 -50 35 -52 43 -33 13 28 0 89 -23 112 -10 10 -16 20 -14
23 2 2 -3 20 -11 40 -25 60 -20 117 17 172 24 36 33 62 36 106 6 85 -4 95 -11
11z m-7 -422 c0 -17 -2 -30 -5 -30 -7 0 -55 98 -55 112 1 28 60 -53 60 -82z"/>
<path d="M3483 3180 c0 -30 2 -43 4 -27 2 15 2 39 0 55 -2 15 -4 2 -4 -28z"/>
<path d="M2568 3055 c-32 -46 -58 -89 -58 -97 0 -9 3 -9 8 -2 4 6 17 17 30 23
15 8 21 18 18 28 -4 9 9 39 30 70 58 87 35 69 -28 -22z"/>
<path d="M3544 2995 c0 -55 1 -76 3 -47 2 29 2 74 0 100 -2 26 -3 2 -3 -53z"/>
<path d="M3112 2985 c8 -9 168 -11 168 -2 0 4 -39 7 -87 7 -47 0 -84 -2 -81
-5z"/>
<path d="M3391 2954 c0 -11 3 -14 6 -6 3 7 2 16 -1 19 -3 4 -6 -2 -5 -13z"/>
<path d="M2902 2855 c0 -16 2 -22 5 -12 2 9 2 23 0 30 -3 6 -5 -1 -5 -18z"/>
<path d="M2 2335 c0 -16 2 -22 5 -12 2 9 2 23 0 30 -3 6 -5 -1 -5 -18z"/>
<path d="M2965 2319 c-4 -6 -5 -12 -2 -15 7 -7 37 7 37 17 0 13 -27 11 -35 -2z"/>
<path d="M2690 2301 c0 -6 4 -13 10 -16 6 -3 7 1 4 9 -7 18 -14 21 -14 7z"/>
<path d="M2711 2197 c-14 -37 -14 -60 1 -55 16 6 28 52 17 69 -6 10 -11 6 -18
-14z"/>
<path d="M2755 2165 c-9 -20 -14 -40 -11 -43 3 -3 13 12 21 33 9 20 14 40 11
43 -3 3 -13 -12 -21 -33z"/>
<path d="M7 1905 c3 -49 9 -117 13 -150 l7 -60 1 75 c0 41 -6 109 -13 150
l-14 75 6 -90z"/>
<path d="M5113 1860 c0 -25 2 -35 4 -22 2 12 2 32 0 45 -2 12 -4 2 -4 -23z"/>
<path d="M5112 1720 c0 -14 2 -19 5 -12 2 6 2 18 0 25 -3 6 -5 1 -5 -13z"/>
<path d="M798 1513 c7 -3 16 -2 19 1 4 3 -2 6 -13 5 -11 0 -14 -3 -6 -6z"/>
<path d="M738 1503 c6 -2 18 -2 25 0 6 3 1 5 -13 5 -14 0 -19 -2 -12 -5z"/>
<path d="M673 1493 c9 -2 23 -2 30 0 6 3 -1 5 -18 5 -16 0 -22 -2 -12 -5z"/>
<path d="M1550 1250 c0 -6 28 -10 68 -9 52 1 60 3 37 9 -45 11 -105 11 -105 0z"/>
<path d="M3 1134 c3 -3 115 -12 249 -20 259 -14 344 -17 337 -10 -5 5 -491 36
-557 36 -19 0 -33 -3 -29 -6z"/>
<path d="M940 1052 c41 -35 132 -84 210 -111 53 -19 54 -20 25 -26 -87 -20
-175 -46 -215 -65 -25 -11 -38 -19 -30 -17 84 22 274 67 310 74 l45 9 -90 28
c-85 27 -177 69 -255 117 l-35 21 35 -30z"/>
<path d="M1468 973 c7 -3 16 -2 19 1 4 3 -2 6 -13 5 -11 0 -14 -3 -6 -6z"/>
<path d="M35 911 c-25 -5 65 -9 230 -10 149 -1 303 -6 343 -10 39 -4 72 -4 72
0 0 3 -24 9 -52 12 -88 11 -550 16 -593 8z"/>
<path d="M1231 760 c-1 -39 32 -102 72 -137 52 -46 109 -77 214 -117 93 -36
596 -175 713 -196 36 -7 70 -14 76 -16 7 -1 25 -27 42 -58 43 -80 155 -235
170 -236 18 0 17 2 -42 85 -63 87 -130 195 -125 200 2 2 42 -1 89 -7 118 -14
461 -14 605 1 495 50 791 138 1050 312 80 53 120 93 130 129 6 21 3 19 -16 -9
-54 -78 -323 -231 -509 -289 -284 -90 -619 -136 -980 -135 -318 0 -384 10
-797 119 -499 132 -641 204 -681 345 -9 29 -10 30 -11 9z"/>
<path d="M4190 776 c0 -2 8 -10 18 -17 15 -13 16 -12 3 4 -13 16 -21 21 -21
13z"/>
<path d="M825 693 c-57 -13 -225 -64 -259 -78 -51 -22 -40 -29 15 -10 24 9
102 31 173 50 71 19 131 37 134 40 6 6 -34 5 -63 -2z"/>
<path d="M1594 283 c4 -4 55 -15 114 -25 104 -18 347 -94 501 -158 94 -38 113
-38 37 1 -131 68 -363 142 -548 174 -93 17 -115 18 -104 8z"/>
<path d="M910 199 c-102 -5 -201 -10 -220 -13 -45 -5 424 4 645 14 l170 7
-205 0 c-113 0 -288 -4 -390 -8z"/>
</g>
</svg>